<svg width="28" height="28" viewBox="0 0 28 28" fill="none" xmlns="http://www.w3.org/2000/svg">
<path d="M25.9165 6.46972H21.3332V4.89207C21.3332 4.76811 21.23 4.66669 21.104 4.66669H19.4998C19.3738 4.66669 19.2707 4.76811 19.2707 4.89207V6.46972H15.0311V4.89207C15.0311 4.76811 14.928 4.66669 14.8019 4.66669H13.1978C13.0717 4.66669 12.9686 4.76811 12.9686 4.89207V6.46972H8.729V4.89207C8.729 4.76811 8.62588 4.66669 8.49984 4.66669H6.89567C6.76963 4.66669 6.6665 4.76811 6.6665 4.89207V6.46972H2.08317C1.57614 6.46972 1.1665 6.87258 1.1665 7.37123V23.5985C1.1665 24.0972 1.57614 24.5 2.08317 24.5H25.9165C26.4235 24.5 26.8332 24.0972 26.8332 23.5985V7.37123C26.8332 6.87258 26.4235 6.46972 25.9165 6.46972ZM24.7707 22.4716H3.229V8.49813H6.6665V10.0758C6.6665 10.1997 6.76963 10.3012 6.89567 10.3012H8.49984C8.62588 10.3012 8.729 10.1997 8.729 10.0758V8.49813H12.9686V10.0758C12.9686 10.1997 13.0717 10.3012 13.1978 10.3012H14.8019C14.928 10.3012 15.0311 10.1997 15.0311 10.0758V8.49813H19.2707V10.0758C19.2707 10.1997 19.3738 10.3012 19.4998 10.3012H21.104C21.23 10.3012 21.3332 10.1997 21.3332 10.0758V8.49813H24.7707V22.4716ZM11.2498 14.1326H5.979C5.85296 14.1326 5.74984 14.234 5.74984 14.358V15.7102C5.74984 15.8342 5.85296 15.9356 5.979 15.9356H11.2498C11.3759 15.9356 11.479 15.8342 11.479 15.7102V14.358C11.479 14.234 11.3759 14.1326 11.2498 14.1326ZM11.2498 17.964H5.979C5.85296 17.964 5.74984 18.0655 5.74984 18.1894V19.5417C5.74984 19.6656 5.85296 19.7671 5.979 19.7671H11.2498C11.3759 19.7671 11.479 19.6656 11.479 19.5417V18.1894C11.479 18.0655 11.3759 17.964 11.2498 17.964ZM20.0785 12.9663L17.1108 17.0146L15.5983 14.9552C15.5123 14.8369 15.3748 14.7693 15.2287 14.7693H13.6561C13.4699 14.7693 13.361 14.9778 13.4699 15.1271L16.7384 19.5839C16.7806 19.6415 16.8361 19.6884 16.9003 19.7208C16.9646 19.7531 17.0357 19.77 17.1079 19.77C17.1801 19.77 17.2512 19.7531 17.3155 19.7208C17.3797 19.6884 17.4352 19.6415 17.4774 19.5839L22.204 13.1409C22.3129 12.9916 22.204 12.7831 22.0178 12.7831H20.4451C20.3019 12.7803 20.1644 12.8508 20.0785 12.9663Z" fill="#0785CE" fill-opacity="0.4"/>
</svg>
