<svg width="14" height="20" viewBox="0 0 14 20" fill="none" xmlns="http://www.w3.org/2000/svg">
<path d="M8.60631 14.9996H4.97032C4.8089 14.9996 4.66744 15.0625 4.54624 15.1873C4.42494 15.3124 4.36439 15.458 4.36439 15.6248V19.375C4.36439 19.5417 4.42515 19.6876 4.54624 19.8125C4.66744 19.9372 4.80874 20 4.97032 20H8.60631C8.76772 20 8.90956 19.9374 9.03028 19.8125C9.15179 19.6876 9.21244 19.5417 9.21244 19.375V15.6248C9.21244 15.458 9.15195 15.3124 9.03028 15.1873C8.90956 15.0621 8.76772 14.9996 8.60631 14.9996Z" fill="#2470B6" fill-opacity="0.68"/>
<path d="M13.3788 3.77357C12.9646 2.98668 12.4295 2.32294 11.7728 1.78113C11.1166 1.23954 10.3788 0.807023 9.56091 0.484235C8.74284 0.161558 7.92986 0 7.12171 0C4.05154 0 1.70843 1.38545 0.0923441 4.15639C0.0116352 4.29173 -0.0162228 4.43753 0.00898211 4.59383C0.0343462 4.74992 0.112614 4.88017 0.243892 4.98432L2.72851 6.93763C2.85979 7.02081 2.98608 7.06246 3.10733 7.06246C3.28918 7.06246 3.44561 6.979 3.57705 6.81235C4.30411 5.87497 4.84456 5.27602 5.19801 5.01546C5.63239 4.71347 6.17761 4.56253 6.83411 4.56253C7.45017 4.56253 7.9929 4.72923 8.46272 5.06231C8.93232 5.39571 9.16692 5.78116 9.16692 6.21866C9.16692 6.70804 9.04089 7.10405 8.78831 7.40616C8.53589 7.70815 8.11155 7.99968 7.51554 8.28104C6.72798 8.64559 6.00553 9.21076 5.34935 9.97641C4.6927 10.7421 4.36461 11.5572 4.36461 12.4218V13.1249C4.36461 13.323 4.41735 13.5182 4.52358 13.7109C4.62971 13.9038 4.75839 14 4.90999 14H8.54592C8.70755 14 8.8488 13.9195 8.97011 13.7575C9.09104 13.5965 9.1519 13.4271 9.1519 13.2503C9.1519 12.99 9.29076 12.6406 9.56828 12.2034C9.84607 11.7659 10.1919 11.427 10.6063 11.1873C11 10.9582 11.3077 10.7736 11.5302 10.6328C11.7528 10.4923 12.043 10.2653 12.4016 9.95299C12.7601 9.64038 13.0379 9.33045 13.2346 9.02326C13.4316 8.71602 13.6085 8.31749 13.765 7.82778C13.9219 7.33824 14 6.81213 14 6.24969C13.9999 5.3851 13.7927 4.55963 13.3788 3.77357Z" fill="#2470B6" fill-opacity="0.68"/>
</svg>
