<svg width="23" height="23" viewBox="0 0 23 23" fill="none" xmlns="http://www.w3.org/2000/svg">
<path d="M11.5 3.31296C11.1032 3.31296 10.7812 2.99096 10.7812 2.59421V0.71875C10.7812 0.322 11.1032 0 11.5 0C11.8967 0 12.2188 0.322 12.2188 0.71875V2.59421C12.2188 2.99096 11.8967 3.31296 11.5 3.31296Z" fill="white" fill-opacity="0.75"/>
<path d="M17.7972 5.92153C17.6132 5.92153 17.4292 5.85158 17.2893 5.7107C17.0085 5.42991 17.0085 4.9747 17.2893 4.69391L18.6156 3.36758C18.8964 3.08678 19.3516 3.08678 19.6324 3.36758C19.9132 3.64837 19.9132 4.10358 19.6324 4.38437L18.3061 5.7107C18.1652 5.85062 17.9812 5.92153 17.7972 5.92153Z" fill="white" fill-opacity="0.75"/>
<path d="M22.2813 12.2188H20.4058C20.009 12.2188 19.687 11.8967 19.687 11.5C19.687 11.1032 20.009 10.7812 20.4058 10.7812H22.2813C22.678 10.7812 23 11.1032 23 11.5C23 11.8967 22.678 12.2188 22.2813 12.2188Z" fill="white" fill-opacity="0.75"/>
<path d="M19.1235 19.8423C18.9395 19.8423 18.7555 19.7724 18.6156 19.6315L17.2893 18.3051C17.0085 18.0244 17.0085 17.5691 17.2893 17.2884C17.5701 17.0076 18.0253 17.0076 18.3061 17.2884L19.6324 18.6147C19.9132 18.8955 19.9132 19.3507 19.6324 19.6315C19.4915 19.7724 19.3075 19.8423 19.1235 19.8423Z" fill="white" fill-opacity="0.75"/>
<path d="M3.87647 19.8423C3.69247 19.8423 3.50847 19.7724 3.36855 19.6315C3.08776 19.3507 3.08776 18.8955 3.36855 18.6147L4.69489 17.2884C4.97568 17.0076 5.43089 17.0076 5.71168 17.2884C5.99247 17.5691 5.99247 18.0244 5.71168 18.3051L4.38534 19.6315C4.24447 19.7724 4.06047 19.8423 3.87647 19.8423Z" fill="white" fill-opacity="0.75"/>
<path d="M2.59421 12.2188H0.71875C0.322 12.2188 0 11.8967 0 11.5C0 11.1032 0.322 10.7812 0.71875 10.7812H2.59421C2.99096 10.7812 3.31296 11.1032 3.31296 11.5C3.31296 11.8967 2.99096 12.2188 2.59421 12.2188Z" fill="white" fill-opacity="0.75"/>
<path d="M5.2028 5.92153C5.0188 5.92153 4.8348 5.85158 4.69489 5.7107L3.36855 4.38437C3.08776 4.10358 3.08776 3.64837 3.36855 3.36758C3.64934 3.08678 4.10455 3.08678 4.38534 3.36758L5.71168 4.69391C5.99247 4.9747 5.99247 5.42991 5.71168 5.7107C5.56984 5.85062 5.3868 5.92153 5.2028 5.92153Z" fill="white" fill-opacity="0.75"/>
<path d="M14.375 20.125V21.3229C14.375 22.2429 13.6179 23 12.6979 23H10.3021C9.49708 23 8.625 22.3867 8.625 21.045V20.125H14.375Z" fill="white" fill-opacity="0.75"/>
<path d="M15.7263 6.28665C14.1546 5.01207 12.0846 4.51374 10.0625 4.94499C7.52292 5.47207 5.4625 7.54207 4.93542 10.0817C4.39875 12.6883 5.37625 15.2758 7.46542 16.8571C8.03083 17.2787 8.42375 17.9304 8.55792 18.6875V18.6971C8.57708 18.6875 8.60583 18.6875 8.625 18.6875H14.375C14.3942 18.6875 14.4038 18.6875 14.4229 18.6971V18.6875C14.5571 17.9592 14.9883 17.2883 15.6496 16.7708C17.2692 15.4867 18.2083 13.57 18.2083 11.5C18.2083 9.46832 17.3075 7.57082 15.7263 6.28665ZM15.0938 11.9792C14.7008 11.9792 14.375 11.6533 14.375 11.2604C14.375 9.80374 13.1963 8.62499 11.7396 8.62499C11.3467 8.62499 11.0208 8.29915 11.0208 7.90624C11.0208 7.51332 11.3467 7.18749 11.7396 7.18749C13.9821 7.18749 15.8125 9.0179 15.8125 11.2604C15.8125 11.6533 15.4867 11.9792 15.0938 11.9792Z" fill="white" fill-opacity="0.75"/>
<path d="M8.55792 18.6875H8.62501C8.60584 18.6875 8.57709 18.6875 8.55792 18.6971V18.6875Z" fill="white" fill-opacity="0.75"/>
<path d="M14.4229 18.6875V18.6971C14.4038 18.6875 14.3942 18.6875 14.375 18.6875H14.4229Z" fill="white" fill-opacity="0.75"/>
</svg>
