<svg width="20" height="15" viewBox="0 0 20 15" fill="none" xmlns="http://www.w3.org/2000/svg">
<path d="M19.8236 1.00476L13.758 7.03132L19.8236 13.0579C19.9333 12.8287 19.9998 12.5753 19.9998 12.3048V1.75785C19.9998 1.48726 19.9333 1.23394 19.8236 1.00476Z" fill="white" fill-opacity="0.75"/>
<path d="M18.2425 0H1.75806C1.48748 0 1.23416 0.0665239 1.00497 0.176173L8.75748 7.88961C9.44295 8.57508 10.5576 8.57508 11.2431 7.88961L18.9956 0.176173C18.7664 0.0665239 18.5131 0 18.2425 0Z" fill="white" fill-opacity="0.75"/>
<path d="M0.176173 1.00476C0.0665238 1.23394 0 1.48726 0 1.75785V12.3048C0 12.5754 0.0665238 12.8287 0.176173 13.0579L6.24179 7.03132L0.176173 1.00476Z" fill="white" fill-opacity="0.75"/>
<path d="M12.93 7.8598L12.0717 8.71813C10.9295 9.86028 9.07103 9.86028 7.92888 8.71813L7.07059 7.8598L1.00497 13.8864C1.23416 13.996 1.48748 14.0625 1.75806 14.0625H18.2425C18.5131 14.0625 18.7664 13.996 18.9956 13.8864L12.93 7.8598Z" fill="white" fill-opacity="0.75"/>
</svg>
