<svg width="20" height="20" viewBox="0 0 20 20" fill="none" xmlns="http://www.w3.org/2000/svg">
<path d="M10 0C4.47715 0 0 4.47715 0 10C0 15.5228 4.47715 20 10 20C15.5228 20 20 15.5228 20 10C19.9941 4.47962 15.5204 0.00590124 10 0ZM14.2114 10.3186C14.1422 10.4575 14.0296 10.5701 13.8907 10.6393V10.6429L8.17643 13.5C7.82353 13.6763 7.39454 13.5333 7.21817 13.1803C7.16804 13.08 7.14221 12.9693 7.14284 12.8572V7.14288C7.14267 6.74838 7.4623 6.42845 7.85681 6.42825C7.96776 6.4282 8.0772 6.45399 8.17643 6.50358L13.8907 9.36074C14.2438 9.53669 14.3874 9.96556 14.2114 10.3186Z" fill="#2470B6" fill-opacity="0.68"/>
</svg>
