<svg width="22" height="19" viewBox="0 0 22 19" fill="none" xmlns="http://www.w3.org/2000/svg">
<path d="M22 13.2692C22 12.4405 21.4595 11.7406 20.7109 11.477V4.88325L22 4.35841L11 0L0 4.35841L11 8.71686L19.4219 5.39439V11.477C18.6733 11.7406 18.1328 12.4405 18.1328 13.2692C18.1328 14.0279 18.5866 14.6792 19.2372 14.9869L18.1662 18.1597L19.3885 18.5625L20.0664 16.5542L20.7443 18.5625L21.9666 18.1597L20.8957 14.9869C21.5463 14.6792 22 14.028 22 13.2692Z" fill="#2470B6" fill-opacity="0.68"/>
<path d="M11 10.0887L5.19922 7.78848V9.4503C5.19922 11.2647 7.693 12.6327 11 12.6327C14.307 12.6327 16.8008 11.2647 16.8008 9.4503V7.78848L11 10.0887Z" fill="#2470B6" fill-opacity="0.68"/>
</svg>
