<svg width="20" height="20" viewBox="0 0 20 20" fill="none" xmlns="http://www.w3.org/2000/svg">
<circle cx="10" cy="10" r="10" fill="#2470B6" fill-opacity="0.68"/>
<path d="M8.94355 12.3745C8.88622 11.8007 8.91489 11.3152 9.02955 10.9179C9.14421 10.5097 9.299 10.1621 9.49392 9.87519C9.70031 9.57726 9.92963 9.32347 10.1819 9.11381C10.4456 8.89312 10.6864 8.68347 10.9042 8.48485C11.1336 8.28622 11.3227 8.08209 11.4718 7.87243C11.6209 7.65174 11.6954 7.39243 11.6954 7.0945C11.6954 6.70829 11.5807 6.39933 11.3514 6.1676C11.1336 5.93588 10.738 5.82002 10.1647 5.82002C9.98122 5.82002 9.7863 5.84209 9.57991 5.88623C9.37353 5.91933 9.16714 5.9745 8.96075 6.05174C8.75436 6.11795 8.55371 6.20071 8.35878 6.30002C8.17533 6.38829 8.00907 6.48209 7.86001 6.5814L7.00006 4.99243C7.43577 4.70554 7.93454 4.46829 8.49638 4.28071C9.06968 4.09312 9.75764 3.99933 10.5603 3.99933C11.6381 3.99933 12.4808 4.25312 13.0885 4.76071C13.6962 5.25726 14.0001 5.93036 14.0001 6.78002C14.0001 7.34278 13.9198 7.81174 13.7593 8.18691C13.6102 8.55105 13.421 8.86554 13.1917 9.13036C12.9624 9.38416 12.7101 9.61036 12.435 9.80898C12.1598 10.0076 11.9075 10.2228 11.6782 10.4545C11.4489 10.6752 11.254 10.9345 11.0934 11.2324C10.9329 11.5304 10.8526 11.9111 10.8526 12.3745H8.94355ZM8.59957 14.7248C8.59957 14.3386 8.7257 14.0352 8.97795 13.8145C9.2302 13.5828 9.56271 13.4669 9.97549 13.4669C10.4112 13.4669 10.7552 13.5828 11.0074 13.8145C11.2597 14.0352 11.3858 14.3386 11.3858 14.7248C11.3858 15.1111 11.2597 15.42 11.0074 15.6517C10.7552 15.8835 10.4112 15.9993 9.97549 15.9993C9.56271 15.9993 9.2302 15.8835 8.97795 15.6517C8.7257 15.42 8.59957 15.1111 8.59957 14.7248Z" fill="white"/>
</svg>
