<svg width="17" height="16" viewBox="0 0 17 16" fill="none" xmlns="http://www.w3.org/2000/svg">
<path d="M8.9774 0C4.7022 0.0553633 1.21871 3.59862 1.21871 7.97232C1.21871 9.3564 1.58817 10.6851 2.22153 11.8478C2.06319 12.2907 1.79929 12.6782 1.53539 13.0104C1.32427 13.2318 1.11314 13.4533 0.849243 13.6194C0.585342 13.7855 0.321441 13.9516 0.0575394 14.0623C-0.0480211 14.1176 0.0047592 14.173 0.11032 14.2284C0.21588 14.2837 0.321441 14.3391 0.427001 14.3945C0.638122 14.5052 0.849243 14.5606 1.06036 14.6159C1.42983 14.7266 1.79929 14.782 2.22153 14.782C2.64377 14.8374 3.01323 14.7266 3.43548 14.6713C3.80494 14.6159 4.12162 14.5052 4.49108 14.3945C5.81059 15.391 7.44677 16 9.18852 16C13.5165 16 17 12.4014 17 8.02768C16.8417 3.54325 13.3054 0 8.9774 0Z" fill="#2470B6" fill-opacity="0.68"/>
</svg>
