<svg width="18" height="18" viewBox="0 0 18 18" fill="none" xmlns="http://www.w3.org/2000/svg">
<path d="M16.8 1.8H9.6V0.6C9.6 0.26868 9.33132 0 9 0C8.66868 0 8.4 0.26868 8.4 0.6V1.8H1.2C0.54 1.8 0 2.34 0 3V12.6C0 13.26 0.54 13.8 1.2 13.8H7.69542L4.94442 17.0095C4.72878 17.2611 4.75782 17.6399 5.00946 17.8556C5.12256 17.9525 5.2614 18 5.3997 18C5.56872 18 5.7369 17.9288 5.85558 17.7905L9.00006 14.122L12.1447 17.7905C12.2631 17.9288 12.4313 18 12.6 18C12.7383 18 12.8771 17.9525 12.9902 17.8556C13.2422 17.6399 13.2715 17.2612 13.0553 17.0095L10.3045 13.8H16.8C17.46 13.8 18 13.26 18 12.6V3C18 2.34 17.46 1.8 16.8 1.8ZM9 11.4C7.014 11.4 5.4 9.786 5.4 7.8C5.4 5.814 7.014 4.2 9 4.2C10.986 4.2 12.6 5.814 12.6 7.8C12.6 9.786 10.986 11.4 9 11.4Z" fill="#2470B6" fill-opacity="0.68"/>
<path d="M9.6 5.478V7.2H11.322C11.106 6.354 10.446 5.694 9.6 5.478Z" fill="#2470B6" fill-opacity="0.68"/>
<path d="M8.4 7.8V5.478C7.362 5.742 6.6 6.684 6.6 7.8C6.6 9.126 7.674 10.2 9 10.2C10.116 10.2 11.058 9.438 11.322 8.4H9C8.67 8.4 8.4 8.13 8.4 7.8Z" fill="#2470B6" fill-opacity="0.68"/>
</svg>
