<svg width="19" height="13" viewBox="0 0 19 13" fill="none" xmlns="http://www.w3.org/2000/svg">
<path d="M0.744812 10.0601H17.9019L17.8523 10.5576C17.6989 11.7853 16.826 12.5021 15.9389 12.5021H2.70781C1.70524 12.5021 0.920459 11.639 0.795476 10.5667C0.794091 10.5555 0.80098 10.6236 0.744812 10.0601Z" fill="#2470B6" fill-opacity="0.68"/>
<path d="M18.6501 2.56251L18.0112 8.96659H0.636168L0.0122352 2.69846C-0.154774 1.22859 1.43065 0.549215 2.16258 1.39031C3.92353 3.42081 4.11205 3.82164 4.70361 3.75111C4.92595 3.72406 5.08483 3.62445 5.21678 3.50289C8.80201 0.063205 8.56753 0.285944 8.60445 0.256749C9.08696 -0.114447 9.70751 -0.053213 10.071 0.249459C13.6937 3.29346 13.5258 3.1594 13.6067 3.20547C13.945 3.39985 14.3438 3.3751 14.6848 3.04072C16.698 1.06256 16.5703 1.18583 16.6077 1.15594C17.5286 0.43892 18.7975 1.27214 18.6501 2.56251Z" fill="#2470B6" fill-opacity="0.68"/>
</svg>
