<svg width="22" height="19" viewBox="0 0 22 19" fill="none" xmlns="http://www.w3.org/2000/svg">
<path d="M0.773292 0.00042359C-0.144877 -0.0268277 -0.298836 1.26926 0.601428 1.44717L2.26002 1.80115C3.13737 5.89057 4.09373 9.96332 5.02112 14.0425C5.09737 14.377 5.40188 14.6149 5.7535 14.6148H18.9241C19.9388 14.6295 19.9388 13.1388 18.9241 13.1533H6.35551L6.0235 11.6922H19.5886C19.9402 11.6923 20.2447 11.4543 20.321 11.1199L21.982 3.81311C22.0855 3.35704 21.7295 2.92468 21.2501 2.92441C15.5118 2.92453 9.77351 2.92429 4.03535 2.92165L3.62766 1.037C3.5669 0.755721 3.34257 0.535302 3.05445 0.473701L0.921771 0.0188546C0.873015 0.00789884 0.823333 0.00156424 0.77334 0.000367398L0.773292 0.00042359ZM8.87533 15.1025C7.77971 15.1025 6.87545 15.9837 6.87545 17.0513C6.87545 18.1189 7.77971 19 8.87533 19C9.97095 19 10.8752 18.1189 10.8752 17.0513C10.8752 15.9837 9.97095 15.1025 8.87533 15.1025ZM15.8749 15.1025C14.7793 15.1025 13.875 15.9837 13.875 17.0513C13.875 18.1189 14.7793 19 15.8749 19C16.9705 19 17.8748 18.1189 17.8748 17.0513C17.8748 15.9837 16.9705 15.1025 15.8749 15.1025Z" fill="#2470B6" fill-opacity="0.68"/>
</svg>
