<svg width="20" height="17" viewBox="0 0 20 17" fill="none" xmlns="http://www.w3.org/2000/svg">
<path d="M17.1129 9.15948H15.5662C15.7238 9.59113 15.81 10.0569 15.81 10.5425V16.3882C15.81 16.5906 15.7747 16.7849 15.7106 16.9656H18.2677C19.2229 16.9656 20 16.1885 20 15.2333V12.0466C20 10.4546 18.7048 9.15948 17.1129 9.15948Z" fill="#2470B6" fill-opacity="0.68"/>
<path d="M4.19005 10.5425C4.19005 10.0569 4.27618 9.59113 4.43384 9.15948H2.88712C1.29516 9.15948 0 10.4546 0 12.0466V15.2334C0 16.1885 0.777072 16.9656 1.73227 16.9656H4.28938C4.22528 16.7849 4.19005 16.5906 4.19005 16.3882V10.5425Z" fill="#2470B6" fill-opacity="0.68"/>
<path d="M11.768 7.65527H8.23196C6.64001 7.65527 5.34485 8.95043 5.34485 10.5424V16.3881C5.34485 16.707 5.60336 16.9655 5.92227 16.9655H14.0777C14.3966 16.9655 14.6551 16.707 14.6551 16.3881V10.5424C14.6551 8.95043 13.3599 7.65527 11.768 7.65527Z" fill="#2470B6" fill-opacity="0.68"/>
<path d="M10 0C8.08547 0 6.52789 1.55758 6.52789 3.47216C6.52789 4.77079 7.24465 5.90497 8.30317 6.50044C8.80524 6.78287 9.38407 6.94427 10 6.94427C10.6159 6.94427 11.1948 6.78287 11.6968 6.50044C12.7554 5.90497 13.4721 4.77075 13.4721 3.47216C13.4721 1.55762 11.9145 0 10 0Z" fill="#2470B6" fill-opacity="0.68"/>
<path d="M3.90302 3.23615C2.47118 3.23615 1.30634 4.40099 1.30634 5.83283C1.30634 7.26467 2.47118 8.42952 3.90302 8.42952C4.26622 8.42952 4.61208 8.35428 4.92626 8.21905C5.46947 7.98518 5.91736 7.57119 6.19451 7.05264C6.38904 6.68869 6.49971 6.27349 6.49971 5.83283C6.49971 4.40103 5.33486 3.23615 3.90302 3.23615Z" fill="#2470B6" fill-opacity="0.68"/>
<path d="M16.097 3.23615C14.6652 3.23615 13.5003 4.40099 13.5003 5.83283C13.5003 6.27353 13.611 6.68873 13.8055 7.05264C14.0827 7.57123 14.5305 7.98522 15.0737 8.21905C15.3879 8.35428 15.7338 8.42952 16.097 8.42952C17.5288 8.42952 18.6937 7.26467 18.6937 5.83283C18.6937 4.40099 17.5288 3.23615 16.097 3.23615Z" fill="#2470B6" fill-opacity="0.68"/>
</svg>
