<svg width="21" height="18" viewBox="0 0 21 18" fill="none" xmlns="http://www.w3.org/2000/svg">
<path d="M20.3365 9.04038L17.542 2.5078C17.5972 2.35991 17.6291 2.20049 17.6291 2.03372C17.6291 1.28449 17.0214 0.677557 16.2725 0.677557C15.8191 0.677557 15.4191 0.900612 15.173 1.24254H12.0453C11.7366 0.512538 11.0129 0 10.1703 0C9.32742 0 8.60441 0.512538 8.29605 1.24324H5.16838C4.9219 0.901311 4.52159 0.678256 4.06814 0.678256C3.31926 0.678256 2.71232 1.28519 2.71232 2.03442C2.71232 2.20118 2.74414 2.36026 2.79938 2.5085L0.00489463 9.04038H0C0 11.1619 1.82185 12.8827 4.06849 12.8827C6.31582 12.8827 8.13662 11.1619 8.13662 9.04038H8.13173L5.47324 2.82525H8.29605C8.45163 3.19305 8.71244 3.5056 9.04038 3.72516V14.8356H4.97224V15.7397C4.97224 16.983 5.98928 18 7.23251 18H13.1089C14.3521 18 15.3691 16.983 15.3691 15.7397V14.8356H11.3007V3.72481C11.6286 3.5049 11.8894 3.1927 12.045 2.82525H14.8674L12.2051 9.04038L12.2048 9.04073L12.2034 9.04388L12.2051 9.04458C12.2076 11.1643 14.028 12.8827 16.2732 12.8827C18.5206 12.8827 20.3414 11.1619 20.3414 9.04038H20.3365ZM6.90248 9.04038H1.23415L3.67587 3.33184C3.79998 3.36925 3.93144 3.38988 4.06779 3.38988C4.20414 3.38988 4.33629 3.36925 4.46076 3.33149L6.90248 9.04038ZM13.434 9.04038L15.8796 3.33184C16.004 3.3696 16.1358 3.39023 16.2725 3.39023C16.4092 3.39023 16.5411 3.3696 16.6655 3.33184L19.1076 9.04038H13.434Z" fill="#2470B6" fill-opacity="0.68"/>
</svg>
