<svg width="18" height="20" viewBox="0 0 18 20" fill="none" xmlns="http://www.w3.org/2000/svg">
<path d="M15.2106 15.8972C14.5118 15.8972 13.9432 16.4723 13.9432 17.1791V19.9995L17.9992 15.8972H15.2106Z" fill="#5398D7"/>
<path d="M3.54901 2.56421V17.4358C3.54901 18.8462 4.68979 20 6.0843 20H12.6757V17.1796C12.6757 15.7691 13.8165 14.6154 15.211 14.6154H17.9996L18 2.56421H3.54901ZM11.1541 12.9483H6.59097V11.6664H11.1541V12.9483ZM14.9572 9.87168H6.59097V8.58978H14.9568V9.87168H14.9572ZM14.9572 6.79464H6.59097V5.51274H14.9568V6.79464H14.9572Z" fill="#5398D7"/>
<path d="M0 0V14.8716C0 16.1951 1.0051 17.293 2.28157 17.4227V1.2819H14.451V0H0Z" fill="#5398D7"/>
</svg>
