<svg width="14" height="22" viewBox="0 0 14 22" fill="none" xmlns="http://www.w3.org/2000/svg">
<path d="M3.70697 21.9711C3.92575 22.0853 4.15653 21.8379 4.02259 21.6332C3.29554 20.5217 2.60707 18.6514 3.70397 16.2427C5.53319 12.2261 6.64627 10.1457 6.64627 10.1457C6.64627 10.1457 7.2383 12.5735 8.84318 14.7321C10.3878 16.8096 11.2332 19.4225 9.87025 21.5991C9.74235 21.8034 9.9679 22.0445 10.1852 21.9352C11.8724 21.0875 13.7647 19.3871 13.9782 16.0032C14.0569 14.9692 13.9389 13.5216 13.3485 11.6949C12.5895 9.37961 11.6563 8.29927 11.1164 7.83533C10.9549 7.69654 10.7037 7.81955 10.7169 8.02991C10.8743 10.5281 9.91747 11.162 9.37286 9.73333C9.15536 9.1627 9.02851 8.17572 9.02851 6.97377C9.02851 4.97274 8.43746 2.91287 7.1344 1.239C6.79555 0.803706 6.39905 0.396958 5.94414 0.0500983C5.77945 -0.075503 5.54073 0.0507453 5.5558 0.255C5.65586 1.61152 5.56521 5.49923 2.0928 10.1438C-1.05565 14.4522 0.164363 17.761 0.597275 18.6572C1.42497 20.374 2.57947 21.3822 3.70697 21.9711Z" fill="#FF3C3C"/>
</svg>
