<svg width="239" height="44" viewBox="0 0 239 44" fill="none" xmlns="http://www.w3.org/2000/svg">
<path d="M50.6038 12.8866C45.3937 12.8866 41.2858 17.0947 41.2858 22.1045C41.2858 27.2144 45.4939 31.3223 50.6038 31.3223C55.7137 31.3223 59.9219 27.1142 59.9219 22.1045C59.9219 17.0947 55.7137 12.8866 50.6038 12.8866ZM50.6038 28.0159C47.3976 28.0159 44.7926 25.4109 44.7926 22.3048C44.7926 19.0986 47.3976 16.5938 50.6038 16.5938C53.81 16.5938 56.4151 19.1988 56.4151 22.3048C56.4151 25.4109 53.81 28.0159 50.6038 28.0159Z" fill="white"/>
<path d="M50.6038 25.4108C52.4073 25.4108 53.81 24.0081 53.81 22.2046C53.81 20.4011 52.4073 18.9984 50.6038 18.9984C48.8003 18.9984 47.3976 20.4011 47.3976 22.2046C47.3976 24.0081 48.8003 25.4108 50.6038 25.4108Z" fill="#F8AC28"/>
<path d="M59.621 29.2183C59.621 29.2183 62.6269 25.3107 62.0257 20.301C63.5286 19.3992 66.2339 18.5977 69.2397 14.0889C69.2397 16.694 68.1375 21.4031 64.23 24.4089C66.4342 24.2085 67.837 23.6074 70.442 22.2047C69.7407 24.9099 67.837 29.1181 59.621 29.2183Z" fill="white"/>
<path d="M73.0473 2.36621C67.236 8.07728 65.1319 8.87883 53.6096 10.4819C41.9871 12.085 36.8772 23.7076 36.8772 23.7076V27.6151C37.3782 27.7153 37.6787 28.1161 37.6787 28.6171C37.6787 29.118 37.3782 29.5188 36.8772 29.619V41.3417C36.8772 41.3417 37.0776 41.6423 37.4784 41.2415C37.278 36.2318 39.9832 33.1258 41.3859 31.1219C39.3821 27.7153 39.4822 23.1064 39.4822 23.1064C39.4822 23.1064 44.492 14.7903 55.1125 13.8885C72.1455 12.586 73.1475 3.16776 73.0473 2.36621Z" fill="white"/>
<path d="M22.4492 12.8866C27.6593 12.8866 31.7673 17.0947 31.7673 22.1045C31.7673 27.2144 27.5591 31.3223 22.4492 31.3223C17.3393 31.3223 13.1312 27.1142 13.1312 22.1045C13.1312 17.0947 17.3393 12.8866 22.4492 12.8866ZM22.4492 28.0159C25.6554 28.0159 28.2605 25.4109 28.2605 22.3048C28.2605 19.0986 25.6554 16.5938 22.4492 16.5938C19.243 16.5938 16.638 19.1988 16.638 22.3048C16.638 25.4109 19.243 28.0159 22.4492 28.0159Z" fill="white"/>
<path d="M22.4492 25.4108C24.2527 25.4108 25.6554 24.0081 25.6554 22.2046C25.6554 20.4011 24.2527 18.9984 22.4492 18.9984C20.6457 18.9984 19.243 20.4011 19.243 22.2046C19.243 24.0081 20.6457 25.4108 22.4492 25.4108Z" fill="#F8AC28"/>
<path d="M13.4319 29.2183C13.4319 29.2183 10.4261 25.3107 11.0273 20.301C9.52436 19.3992 6.81912 18.5977 3.81329 14.0889C3.81329 16.694 4.91543 21.4031 8.823 24.4089C6.61873 24.2085 5.21601 23.6074 2.61096 22.2047C3.41252 24.9099 5.21601 29.1181 13.4319 29.2183Z" fill="white"/>
<path d="M0.00584522 2.36621C5.81711 8.07728 7.92119 8.87883 19.4435 10.4819C31.066 12.085 36.1759 23.7076 36.1759 23.7076V27.6151C35.675 27.7153 35.3744 28.1161 35.3744 28.6171C35.3744 29.118 35.675 29.5188 36.1759 29.619V41.3417C36.1759 41.3417 35.9756 41.6423 35.5748 41.2415C35.7752 36.2318 33.0699 33.1258 31.6672 31.1219C33.6711 27.6151 33.4707 23.0062 33.4707 23.0062C33.4707 23.0062 28.461 14.6901 17.8404 13.7883C0.907593 12.586 -0.0943489 3.16776 0.00584522 2.36621Z" fill="white"/>
<path d="M85.2847 6.16547H95.8687V7.91234H87.2371V11.9199H91.5529C93.197 11.9199 94.5328 12.3309 95.3549 12.9474C96.2797 13.6667 96.588 14.6943 96.588 15.9274C96.588 17.2632 96.1769 18.2908 95.1494 19.1129C94.1218 19.8322 92.8887 20.2432 91.1418 20.2432H85.1819L85.2847 6.16547ZM91.2446 18.5991C92.3749 18.5991 93.2997 18.3936 93.9163 17.8798C94.5328 17.366 94.8411 16.7494 94.8411 15.9274C94.8411 14.1805 93.608 13.3585 91.3474 13.3585H87.3398V18.4963H91.2446V18.5991Z" fill="white"/>
<path d="M108.919 9.65915L103.781 21.3735C103.37 22.401 102.753 23.2231 102.24 23.6341C101.623 24.0451 100.904 24.3534 100.082 24.3534C99.568 24.3534 99.0542 24.2507 98.5404 24.1479C98.0266 24.0451 97.6156 23.7369 97.3073 23.4286L98.1294 21.99C98.6432 22.5038 99.3625 22.7093 99.979 22.7093C100.39 22.7093 100.801 22.6065 101.212 22.2983C101.52 22.0928 101.829 21.579 102.034 21.0652L102.445 20.3459L97.6156 9.65915H99.6707L103.37 18.0852L106.966 9.65915H108.919Z" fill="white"/>
<path d="M116.934 20.2432L113.851 16.2356L110.768 20.2432H108.61L112.824 14.8998L108.816 9.76193H110.974L113.954 13.5639L116.934 9.76193H118.989L114.981 14.8998L119.194 20.2432H116.934Z" fill="white"/>
<path d="M128.751 6.98751C129.778 7.60405 130.601 8.52887 131.32 9.55644C131.936 10.6868 132.245 11.9198 132.245 13.2557C132.245 14.5915 131.936 15.8246 131.32 16.9549C130.703 18.0853 129.881 18.9073 128.751 19.5239C127.723 20.1404 126.49 20.4487 125.154 20.4487C124.024 20.4487 122.996 20.3459 121.969 19.9349C121.044 19.5239 120.222 19.0101 119.606 18.2908L120.839 17.0577C121.866 18.188 123.202 18.7018 124.949 18.7018C125.874 18.7018 126.696 18.4963 127.415 18.0853C128.134 17.6742 128.751 17.1605 129.265 16.4412C129.676 15.7219 129.984 14.8998 130.087 14.0777H123.202V12.4336H129.984C129.881 11.5088 129.573 10.7895 129.059 10.0702C128.648 9.35092 128.032 8.83714 127.21 8.52887C126.49 8.11784 125.668 8.01508 124.846 8.01508C123.202 8.01508 121.763 8.52887 120.736 9.65919L119.503 8.42611C120.119 7.70681 120.941 7.19302 121.866 6.78199C122.791 6.37097 123.819 6.26821 125.052 6.26821C126.49 6.06269 127.621 6.37097 128.751 6.98751Z" fill="white"/>
<path d="M85.3301 32.2579H90.3373V33.2181H86.4238V35.9427C86.5731 35.9168 86.7576 35.8908 86.9772 35.8649C87.1968 35.8389 87.4077 35.826 87.6097 35.826C88.0577 35.826 88.4838 35.8692 88.8878 35.9557C89.2919 36.0335 89.6477 36.1719 89.9552 36.3709C90.2626 36.5698 90.5042 36.8423 90.6799 37.1883C90.8644 37.5256 90.9566 37.9538 90.9566 38.4728C90.9566 38.9918 90.8644 39.4416 90.6799 39.8221C90.4954 40.1941 90.2494 40.5011 89.942 40.7433C89.6345 40.9769 89.2744 41.1542 88.8615 41.2753C88.4574 41.3877 88.0314 41.444 87.5834 41.444C87.434 41.444 87.2627 41.4396 87.0695 41.431C86.885 41.431 86.6873 41.4223 86.4765 41.405C86.2745 41.3877 86.0724 41.3661 85.8704 41.3402C85.6771 41.3229 85.497 41.2926 85.3301 41.2494V32.2579ZM87.7151 40.5098C87.9962 40.5098 88.2642 40.4709 88.5189 40.393C88.7737 40.3152 88.9933 40.2027 89.1777 40.0557C89.371 39.9 89.5203 39.7054 89.6257 39.4718C89.7399 39.2383 89.797 38.9658 89.797 38.6544C89.797 38.2565 89.7312 37.9365 89.5994 37.6943C89.4764 37.4435 89.3095 37.2488 89.0987 37.1104C88.8878 36.972 88.6419 36.8812 88.3608 36.838C88.0885 36.7861 87.803 36.7601 87.5043 36.7601C87.4252 36.7601 87.333 36.7645 87.2276 36.7731C87.1222 36.7818 87.0168 36.7904 86.9113 36.7991C86.8059 36.8077 86.7093 36.8207 86.6215 36.838C86.5336 36.8466 86.4677 36.8553 86.4238 36.8639V40.4319C86.4853 40.4492 86.5644 40.4622 86.661 40.4709C86.7664 40.4795 86.8762 40.4882 86.9904 40.4968C87.1134 40.5055 87.2364 40.5098 87.3594 40.5098C87.4823 40.5098 87.6009 40.5098 87.7151 40.5098Z" fill="white" fill-opacity="0.6"/>
<path d="M92.3639 35.3329C92.6977 35.134 93.0843 34.9869 93.5235 34.8918C93.9715 34.7966 94.4371 34.7491 94.9202 34.7491C95.377 34.7491 95.7416 34.8096 96.0139 34.9307C96.295 35.0518 96.5058 35.2118 96.6464 35.4108C96.7957 35.6011 96.8923 35.813 96.9362 36.0465C96.9889 36.2801 97.0153 36.5136 97.0153 36.7472C97.0153 37.2661 97.0021 37.7721 96.9758 38.2652C96.9494 38.7582 96.9362 39.2253 96.9362 39.6664C96.9362 39.9865 96.9494 40.2892 96.9758 40.5747C97.0021 40.8601 97.0504 41.1239 97.1207 41.3661H96.3433L96.0666 40.4579H96.0007C95.9216 40.579 95.8206 40.7001 95.6976 40.8212C95.5834 40.9336 95.4429 41.0374 95.276 41.1326C95.1091 41.2191 94.9158 41.2926 94.6962 41.3531C94.4766 41.4137 94.2262 41.444 93.9451 41.444C93.664 41.444 93.4005 41.4007 93.1545 41.3142C92.9173 41.2277 92.7109 41.1066 92.5352 40.9509C92.3595 40.7866 92.219 40.592 92.1136 40.3671C92.0169 40.1422 91.9686 39.887 91.9686 39.6016C91.9686 39.221 92.0477 38.9053 92.2058 38.6544C92.3639 38.3949 92.5835 38.1917 92.8646 38.0446C93.1545 37.8889 93.4971 37.7808 93.8924 37.7203C94.2965 37.6511 94.7401 37.6165 95.2233 37.6165C95.3463 37.6165 95.4648 37.6165 95.579 37.6165C95.702 37.6165 95.825 37.6251 95.948 37.6424C95.9743 37.3829 95.9875 37.1494 95.9875 36.9418C95.9875 36.466 95.8909 36.133 95.6976 35.9427C95.5044 35.7524 95.153 35.6573 94.6435 35.6573C94.4942 35.6573 94.3316 35.6703 94.156 35.6962C93.9891 35.7135 93.8134 35.7438 93.6289 35.787C93.4532 35.8216 93.2819 35.8692 93.115 35.9298C92.9569 35.9816 92.8163 36.0422 92.6933 36.1114L92.3639 35.3329ZM94.235 40.5357C94.481 40.5357 94.7006 40.5055 94.8939 40.4449C95.0871 40.3757 95.254 40.2936 95.3946 40.1984C95.5351 40.0946 95.6493 39.9822 95.7372 39.8611C95.8338 39.74 95.9041 39.6232 95.948 39.5108V38.4339C95.825 38.4252 95.6976 38.4209 95.5659 38.4209C95.4429 38.4122 95.3199 38.4079 95.1969 38.4079C94.9246 38.4079 94.6567 38.4252 94.3931 38.4598C94.1384 38.4858 93.91 38.542 93.7079 38.6285C93.5147 38.7063 93.3566 38.8188 93.2336 38.9658C93.1194 39.1042 93.0623 39.2815 93.0623 39.4978C93.0623 39.8005 93.1721 40.0514 93.3917 40.2503C93.6113 40.4406 93.8924 40.5357 94.235 40.5357Z" fill="white" fill-opacity="0.6"/>
<path d="M99.6387 38.4468V37.6035H100.561C100.719 37.6035 100.873 37.5775 101.022 37.5256C101.18 37.4737 101.321 37.4045 101.444 37.318C101.567 37.2229 101.664 37.1148 101.734 36.9937C101.813 36.8639 101.852 36.7299 101.852 36.5915C101.852 36.2541 101.734 36.0162 101.497 35.8779C101.259 35.7395 100.904 35.6703 100.429 35.6703C100.087 35.6703 99.7705 35.7222 99.4806 35.826C99.1995 35.9298 98.9799 36.0292 98.8217 36.1244L98.5187 35.3199C98.7822 35.1729 99.0897 35.0432 99.4411 34.9307C99.8012 34.8183 100.227 34.762 100.719 34.762C102.177 34.762 102.907 35.294 102.907 36.3579C102.907 36.6607 102.806 36.9591 102.603 37.2532C102.41 37.5386 102.129 37.7419 101.76 37.863V37.9149C102.278 38.01 102.639 38.1917 102.841 38.4598C103.051 38.7279 103.157 39.0826 103.157 39.5237C103.157 39.8005 103.1 40.0557 102.986 40.2892C102.871 40.5228 102.7 40.726 102.472 40.899C102.243 41.072 101.953 41.2104 101.602 41.3142C101.259 41.4094 100.86 41.4569 100.403 41.4569C99.9549 41.4569 99.5816 41.418 99.2829 41.3402C98.993 41.2623 98.7295 41.1672 98.4923 41.0547L98.7954 40.1984C98.9974 40.3109 99.239 40.3973 99.5201 40.4579C99.81 40.5184 100.122 40.5487 100.456 40.5487C100.992 40.5487 101.4 40.4579 101.681 40.2763C101.962 40.0946 102.103 39.8178 102.103 39.4459C102.103 39.1345 101.971 38.8923 101.707 38.7193C101.444 38.5377 101.009 38.4468 100.403 38.4468H99.6387Z" fill="white" fill-opacity="0.6"/>
<path d="M104.717 35.3329C105.051 35.134 105.437 34.9869 105.877 34.8918C106.325 34.7966 106.79 34.7491 107.273 34.7491C107.73 34.7491 108.095 34.8096 108.367 34.9307C108.648 35.0518 108.859 35.2118 109 35.4108C109.149 35.6011 109.245 35.813 109.289 36.0465C109.342 36.2801 109.368 36.5136 109.368 36.7472C109.368 37.2661 109.355 37.7721 109.329 38.2652C109.303 38.7582 109.289 39.2253 109.289 39.6664C109.289 39.9865 109.303 40.2892 109.329 40.5747C109.355 40.8601 109.404 41.1239 109.474 41.3661H108.696L108.42 40.4579H108.354C108.275 40.579 108.174 40.7001 108.051 40.8212C107.937 40.9336 107.796 41.0374 107.629 41.1326C107.462 41.2191 107.269 41.2926 107.049 41.3531C106.83 41.4137 106.579 41.444 106.298 41.444C106.017 41.444 105.754 41.4007 105.508 41.3142C105.271 41.2277 105.064 41.1066 104.888 40.9509C104.713 40.7866 104.572 40.592 104.467 40.3671C104.37 40.1422 104.322 39.887 104.322 39.6016C104.322 39.221 104.401 38.9053 104.559 38.6544C104.717 38.3949 104.937 38.1917 105.218 38.0446C105.508 37.8889 105.85 37.7808 106.246 37.7203C106.65 37.6511 107.093 37.6165 107.576 37.6165C107.699 37.6165 107.818 37.6165 107.932 37.6165C108.055 37.6165 108.178 37.6251 108.301 37.6424C108.328 37.3829 108.341 37.1494 108.341 36.9418C108.341 36.466 108.244 36.133 108.051 35.9427C107.858 35.7524 107.506 35.6573 106.997 35.6573C106.847 35.6573 106.685 35.6703 106.509 35.6962C106.342 35.7135 106.167 35.7438 105.982 35.787C105.806 35.8216 105.635 35.8692 105.468 35.9298C105.31 35.9816 105.169 36.0422 105.047 36.1114L104.717 35.3329ZM106.588 40.5357C106.834 40.5357 107.054 40.5055 107.247 40.4449C107.44 40.3757 107.607 40.2936 107.748 40.1984C107.888 40.0946 108.002 39.9822 108.09 39.8611C108.187 39.74 108.257 39.6232 108.301 39.5108V38.4339C108.178 38.4252 108.051 38.4209 107.919 38.4209C107.796 38.4122 107.673 38.4079 107.55 38.4079C107.278 38.4079 107.01 38.4252 106.746 38.4598C106.492 38.4858 106.263 38.542 106.061 38.6285C105.868 38.7063 105.71 38.8188 105.587 38.9658C105.473 39.1042 105.415 39.2815 105.415 39.4978C105.415 39.8005 105.525 40.0514 105.745 40.2503C105.964 40.4406 106.246 40.5357 106.588 40.5357Z" fill="white" fill-opacity="0.6"/>
<path d="M114.503 38.0965C114.503 36.998 114.749 36.159 115.241 35.5794C115.742 34.9913 116.458 34.6972 117.389 34.6972C117.881 34.6972 118.307 34.7793 118.667 34.9437C119.036 35.0994 119.339 35.3286 119.576 35.6313C119.814 35.9254 119.989 36.2844 120.103 36.7082C120.218 37.1234 120.275 37.5862 120.275 38.0965C120.275 39.195 120.024 40.0384 119.524 40.6266C119.032 41.2061 118.32 41.4959 117.389 41.4959C116.897 41.4959 116.467 41.418 116.098 41.2623C115.738 41.098 115.439 40.8688 115.202 40.5747C114.965 40.2719 114.789 39.913 114.675 39.4978C114.56 39.0739 114.503 38.6069 114.503 38.0965ZM115.597 38.0965C115.597 38.4252 115.628 38.7409 115.689 39.0437C115.76 39.3464 115.865 39.6102 116.006 39.8351C116.146 40.06 116.331 40.2417 116.559 40.3801C116.787 40.5184 117.064 40.5876 117.389 40.5876C118.584 40.5963 119.181 39.7659 119.181 38.0965C119.181 37.7592 119.146 37.4391 119.076 37.1364C119.014 36.8337 118.913 36.5698 118.773 36.3449C118.632 36.12 118.448 35.9427 118.219 35.813C117.991 35.6746 117.714 35.6054 117.389 35.6054C116.194 35.5967 115.597 36.4271 115.597 38.0965Z" fill="white" fill-opacity="0.6"/>
<path d="M125.921 35.7611H123.866V41.3402H122.811V35.7611H120.756V34.8529H125.921V35.7611Z" fill="white" fill-opacity="0.6"/>
<path d="M126.968 34.8658C127.276 34.8485 127.596 34.8269 127.93 34.801C128.273 34.775 128.694 34.762 129.195 34.762C130.065 34.762 130.688 34.8961 131.066 35.1642C131.444 35.4237 131.633 35.8216 131.633 36.3579C131.633 36.6607 131.54 36.9591 131.356 37.2532C131.18 37.5386 130.886 37.7505 130.473 37.8889V37.9408C130.991 38.036 131.356 38.2133 131.567 38.4728C131.778 38.7323 131.883 39.0783 131.883 39.5108C131.883 40.1854 131.637 40.6741 131.145 40.9769C130.653 41.2796 129.915 41.431 128.931 41.431C128.562 41.431 128.22 41.418 127.904 41.3921C127.587 41.3748 127.276 41.3531 126.968 41.3272V34.8658ZM128.022 40.4709C128.189 40.4882 128.352 40.5011 128.51 40.5098C128.677 40.5184 128.87 40.5228 129.09 40.5228C129.678 40.5228 130.113 40.4406 130.394 40.2763C130.684 40.1119 130.829 39.8308 130.829 39.4329C130.829 39.1215 130.706 38.8707 130.46 38.6804C130.223 38.4814 129.797 38.382 129.182 38.382H128.022V40.4709ZM129.314 37.5905C129.472 37.5905 129.625 37.5646 129.775 37.5127C129.924 37.4608 130.056 37.3916 130.17 37.3051C130.293 37.2099 130.39 37.1018 130.46 36.9807C130.539 36.8596 130.579 36.7299 130.579 36.5915C130.579 36.2455 130.473 36.0076 130.262 35.8779C130.051 35.7395 129.683 35.6703 129.155 35.6703C128.874 35.6703 128.65 35.6746 128.483 35.6832C128.325 35.6919 128.172 35.7005 128.022 35.7092V37.5905H129.314Z" fill="white" fill-opacity="0.6"/>
<path d="M138.353 40.8212C138.09 41.0288 137.756 41.1931 137.352 41.3142C136.956 41.4353 136.535 41.4959 136.087 41.4959C135.586 41.4959 135.151 41.418 134.782 41.2623C134.413 41.098 134.11 40.8688 133.873 40.5747C133.636 40.2719 133.46 39.913 133.346 39.4978C133.232 39.0826 133.175 38.6155 133.175 38.0965C133.175 36.9893 133.425 36.146 133.926 35.5665C134.426 34.9869 135.142 34.6972 136.074 34.6972C136.372 34.6972 136.671 34.7318 136.97 34.801C137.268 34.8615 137.536 34.9826 137.773 35.1642C138.01 35.3459 138.204 35.6054 138.353 35.9427C138.502 36.2714 138.577 36.7082 138.577 37.2532C138.577 37.5386 138.551 37.8543 138.498 38.2003H134.268C134.268 38.5809 134.308 38.9182 134.387 39.2123C134.466 39.5064 134.589 39.7573 134.756 39.9649C134.923 40.1638 135.138 40.3195 135.402 40.4319C135.674 40.5357 136.003 40.5876 136.39 40.5876C136.688 40.5876 136.987 40.5357 137.286 40.4319C137.584 40.3282 137.808 40.2071 137.958 40.0687L138.353 40.8212ZM136.087 35.6054C135.568 35.6054 135.151 35.7395 134.835 36.0076C134.527 36.2757 134.343 36.7342 134.281 37.3829H137.549C137.549 36.7255 137.422 36.2671 137.167 36.0076C136.912 35.7395 136.552 35.6054 136.087 35.6054Z" fill="white" fill-opacity="0.6"/>
<path d="M144.425 35.7611H142.37V41.3402H141.315V35.7611H139.26V34.8529H144.425V35.7611Z" fill="white" fill-opacity="0.6"/>
<path d="M144.897 38.0965C144.897 36.998 145.143 36.159 145.635 35.5794C146.136 34.9913 146.852 34.6972 147.783 34.6972C148.275 34.6972 148.701 34.7793 149.061 34.9437C149.43 35.0994 149.733 35.3286 149.97 35.6313C150.207 35.9254 150.383 36.2844 150.497 36.7082C150.612 37.1234 150.669 37.5862 150.669 38.0965C150.669 39.195 150.418 40.0384 149.918 40.6266C149.426 41.2061 148.714 41.4959 147.783 41.4959C147.291 41.4959 146.861 41.418 146.492 41.2623C146.132 41.098 145.833 40.8688 145.596 40.5747C145.358 40.2719 145.183 39.913 145.069 39.4978C144.954 39.0739 144.897 38.6069 144.897 38.0965ZM145.991 38.0965C145.991 38.4252 146.022 38.7409 146.083 39.0437C146.153 39.3464 146.259 39.6102 146.399 39.8351C146.54 40.06 146.724 40.2417 146.953 40.3801C147.181 40.5184 147.458 40.5876 147.783 40.5876C148.978 40.5963 149.575 39.7659 149.575 38.0965C149.575 37.7592 149.54 37.4391 149.47 37.1364C149.408 36.8337 149.307 36.5698 149.167 36.3449C149.026 36.12 148.842 35.9427 148.613 35.813C148.385 35.6746 148.108 35.6054 147.783 35.6054C146.588 35.5967 145.991 36.4271 145.991 38.0965Z" fill="white" fill-opacity="0.6"/>
<path d="M152.331 34.8658C152.638 34.8485 152.959 34.8269 153.293 34.801C153.635 34.775 154.057 34.762 154.558 34.762C155.427 34.762 156.051 34.8961 156.429 35.1642C156.806 35.4237 156.995 35.8216 156.995 36.3579C156.995 36.6607 156.903 36.9591 156.719 37.2532C156.543 37.5386 156.249 37.7505 155.836 37.8889V37.9408C156.354 38.036 156.719 38.2133 156.929 38.4728C157.14 38.7323 157.246 39.0783 157.246 39.5108C157.246 40.1854 157 40.6741 156.508 40.9769C156.016 41.2796 155.278 41.431 154.294 41.431C153.925 41.431 153.582 41.418 153.266 41.3921C152.95 41.3748 152.638 41.3531 152.331 41.3272V34.8658ZM153.385 40.4709C153.552 40.4882 153.714 40.5011 153.872 40.5098C154.039 40.5184 154.233 40.5228 154.452 40.5228C155.041 40.5228 155.476 40.4406 155.757 40.2763C156.047 40.1119 156.191 39.8308 156.191 39.4329C156.191 39.1215 156.068 38.8707 155.823 38.6804C155.585 38.4814 155.159 38.382 154.544 38.382H153.385V40.4709ZM154.676 37.5905C154.834 37.5905 154.988 37.5646 155.137 37.5127C155.287 37.4608 155.418 37.3916 155.533 37.3051C155.656 37.2099 155.752 37.1018 155.823 36.9807C155.902 36.8596 155.941 36.7299 155.941 36.5915C155.941 36.2455 155.836 36.0076 155.625 35.8779C155.414 35.7395 155.045 35.6703 154.518 35.6703C154.237 35.6703 154.013 35.6746 153.846 35.6832C153.688 35.6919 153.534 35.7005 153.385 35.7092V37.5905H154.676Z" fill="white" fill-opacity="0.6"/>
<path d="M166.385 35.7611H163.473V41.3402H162.419V34.8529H167.439V41.3402H166.385V35.7611Z" fill="white" fill-opacity="0.6"/>
<path d="M169.102 38.0965C169.102 36.998 169.348 36.159 169.84 35.5794C170.34 34.9913 171.056 34.6972 171.987 34.6972C172.479 34.6972 172.905 34.7793 173.266 34.9437C173.635 35.0994 173.938 35.3286 174.175 35.6313C174.412 35.9254 174.588 36.2844 174.702 36.7082C174.816 37.1234 174.873 37.5862 174.873 38.0965C174.873 39.195 174.623 40.0384 174.122 40.6266C173.63 41.2061 172.919 41.4959 171.987 41.4959C171.496 41.4959 171.065 41.418 170.696 41.2623C170.336 41.098 170.037 40.8688 169.8 40.5747C169.563 40.2719 169.387 39.913 169.273 39.4978C169.159 39.0739 169.102 38.6069 169.102 38.0965ZM170.195 38.0965C170.195 38.4252 170.226 38.7409 170.288 39.0437C170.358 39.3464 170.463 39.6102 170.604 39.8351C170.744 40.06 170.929 40.2417 171.157 40.3801C171.386 40.5184 171.662 40.5876 171.987 40.5876C173.182 40.5963 173.779 39.7659 173.779 38.0965C173.779 37.7592 173.744 37.4391 173.674 37.1364C173.613 36.8337 173.512 36.5698 173.371 36.3449C173.23 36.12 173.046 35.9427 172.818 35.813C172.589 35.6746 172.312 35.6054 171.987 35.6054C170.793 35.5967 170.195 36.4271 170.195 38.0965Z" fill="white" fill-opacity="0.6"/>
<path d="M181.985 39.0566L182.354 40.3022H182.42L182.71 39.0437L183.988 34.8529H185.055L183.105 40.6785C182.956 41.1023 182.806 41.5132 182.657 41.9111C182.517 42.3089 182.358 42.6636 182.183 42.975C182.007 43.2864 181.809 43.5329 181.59 43.7145C181.37 43.9048 181.115 44 180.826 44C180.509 44 180.25 43.9567 180.048 43.8702L180.233 42.975C180.347 43.0182 180.457 43.0399 180.562 43.0399C180.808 43.0399 181.045 42.9101 181.274 42.6506C181.502 42.3998 181.691 41.963 181.84 41.3402L179.192 34.8529H180.404L181.985 39.0566Z" fill="white" fill-opacity="0.6"/>
<path d="M186.871 34.8529V36.6174C186.871 36.8509 186.884 37.0629 186.911 37.2532C186.937 37.4348 186.99 37.5948 187.069 37.7332C187.148 37.863 187.262 37.9668 187.412 38.0446C187.561 38.1138 187.758 38.1484 188.004 38.1484C188.4 38.1484 188.725 38.1052 188.98 38.0187C189.234 37.9322 189.428 37.837 189.559 37.7332V34.8529H190.613V41.3402H189.559V38.6155C189.419 38.702 189.208 38.7971 188.927 38.9009C188.655 39.0047 188.277 39.0566 187.794 39.0566C187.469 39.0566 187.183 39.022 186.937 38.9528C186.691 38.8836 186.485 38.7625 186.318 38.5896C186.151 38.4166 186.024 38.1873 185.936 37.9019C185.857 37.6165 185.817 37.2575 185.817 36.825V34.8529H186.871Z" fill="white" fill-opacity="0.6"/>
<path d="M197.455 40.8212C197.192 41.0288 196.858 41.1931 196.454 41.3142C196.059 41.4353 195.637 41.4959 195.189 41.4959C194.688 41.4959 194.253 41.418 193.884 41.2623C193.515 41.098 193.212 40.8688 192.975 40.5747C192.738 40.2719 192.562 39.913 192.448 39.4978C192.334 39.0826 192.277 38.6155 192.277 38.0965C192.277 36.9893 192.527 36.146 193.028 35.5665C193.529 34.9869 194.245 34.6972 195.176 34.6972C195.474 34.6972 195.773 34.7318 196.072 34.801C196.37 34.8615 196.638 34.9826 196.875 35.1642C197.113 35.3459 197.306 35.6054 197.455 35.9427C197.605 36.2714 197.679 36.7082 197.679 37.2532C197.679 37.5386 197.653 37.8543 197.6 38.2003H193.37C193.37 38.5809 193.41 38.9182 193.489 39.2123C193.568 39.5064 193.691 39.7573 193.858 39.9649C194.025 40.1638 194.24 40.3195 194.504 40.4319C194.776 40.5357 195.105 40.5876 195.492 40.5876C195.791 40.5876 196.089 40.5357 196.388 40.4319C196.687 40.3282 196.911 40.2071 197.06 40.0687L197.455 40.8212ZM195.189 35.6054C194.671 35.6054 194.253 35.7395 193.937 36.0076C193.63 36.2757 193.445 36.7342 193.384 37.3829H196.651C196.651 36.7255 196.524 36.2671 196.269 36.0076C196.015 35.7395 195.654 35.6054 195.189 35.6054ZM193.199 33.1013C193.199 32.9023 193.256 32.7423 193.37 32.6212C193.493 32.5001 193.652 32.4396 193.845 32.4396C194.038 32.4396 194.192 32.5001 194.306 32.6212C194.429 32.7423 194.49 32.9023 194.49 33.1013C194.49 33.2829 194.429 33.4343 194.306 33.5554C194.192 33.6765 194.038 33.737 193.845 33.737C193.652 33.737 193.493 33.6765 193.37 33.5554C193.256 33.4343 193.199 33.2829 193.199 33.1013ZM195.729 33.1013C195.729 32.9023 195.786 32.7423 195.9 32.6212C196.023 32.5001 196.181 32.4396 196.375 32.4396C196.577 32.4396 196.735 32.5001 196.849 32.6212C196.972 32.7423 197.034 32.9023 197.034 33.1013C197.034 33.2829 196.972 33.4343 196.849 33.5554C196.735 33.6765 196.577 33.737 196.375 33.737C196.181 33.737 196.023 33.6765 195.9 33.5554C195.786 33.4343 195.729 33.2829 195.729 33.1013Z" fill="white" fill-opacity="0.6"/>
<path d="M203.527 35.7611H201.472V41.3402H200.418V35.7611H198.362V34.8529H203.527V35.7611Z" fill="white" fill-opacity="0.6"/>
<path d="M206.511 39.0566L206.88 40.3022H206.946L207.236 39.0437L208.514 34.8529H209.581L207.631 40.6785C207.482 41.1023 207.333 41.5132 207.183 41.9111C207.043 42.3089 206.885 42.6636 206.709 42.975C206.533 43.2864 206.336 43.5329 206.116 43.7145C205.896 43.9048 205.642 44 205.352 44C205.035 44 204.776 43.9567 204.574 43.8702L204.759 42.975C204.873 43.0182 204.983 43.0399 205.088 43.0399C205.334 43.0399 205.571 42.9101 205.8 42.6506C206.028 42.3998 206.217 41.963 206.366 41.3402L203.718 34.8529H204.93L206.511 39.0566Z" fill="white" fill-opacity="0.6"/>
<path d="M213.749 34.8658C214.057 34.8485 214.377 34.8269 214.711 34.801C215.054 34.775 215.475 34.762 215.976 34.762C216.846 34.762 217.469 34.8961 217.847 35.1642C218.225 35.4237 218.414 35.8216 218.414 36.3579C218.414 36.6607 218.321 36.9591 218.137 37.2532C217.961 37.5386 217.667 37.7505 217.254 37.8889V37.9408C217.772 38.036 218.137 38.2133 218.348 38.4728C218.559 38.7323 218.664 39.0783 218.664 39.5108C218.664 40.1854 218.418 40.6741 217.926 40.9769C217.434 41.2796 216.696 41.431 215.712 41.431C215.343 41.431 215.001 41.418 214.685 41.3921C214.368 41.3748 214.057 41.3531 213.749 41.3272V34.8658ZM214.803 40.4709C214.97 40.4882 215.133 40.5011 215.291 40.5098C215.458 40.5184 215.651 40.5228 215.871 40.5228C216.459 40.5228 216.894 40.4406 217.175 40.2763C217.465 40.1119 217.61 39.8308 217.61 39.4329C217.61 39.1215 217.487 38.8707 217.241 38.6804C217.004 38.4814 216.578 38.382 215.963 38.382H214.803V40.4709ZM216.095 37.5905C216.253 37.5905 216.406 37.5646 216.556 37.5127C216.705 37.4608 216.837 37.3916 216.951 37.3051C217.074 37.2099 217.171 37.1018 217.241 36.9807C217.32 36.8596 217.359 36.7299 217.359 36.5915C217.359 36.2455 217.254 36.0076 217.043 35.8779C216.832 35.7395 216.463 35.6703 215.936 35.6703C215.655 35.6703 215.431 35.6746 215.264 35.6832C215.106 35.6919 214.953 35.7005 214.803 35.7092V37.5905H216.095Z" fill="white" fill-opacity="0.6"/>
<path d="M224.246 40.3801H226.091V34.1003L226.222 33.3348L225.695 33.9446L224.246 34.9696L223.745 34.3079L226.644 32.1022H227.118V40.3801H228.924V41.3402H224.246V40.3801Z" fill="white" fill-opacity="0.6"/>
<path d="M237.026 40.9639C236.763 41.1629 236.429 41.3012 236.025 41.3791C235.621 41.4569 235.19 41.4959 234.734 41.4959C234.18 41.4959 233.662 41.405 233.179 41.2234C232.696 41.0331 232.274 40.7477 231.914 40.3671C231.554 39.9865 231.268 39.5021 231.057 38.9139C230.846 38.3171 230.741 37.6121 230.741 36.7991C230.741 35.9514 230.855 35.2334 231.084 34.6453C231.321 34.0484 231.628 33.564 232.006 33.1921C232.393 32.8115 232.823 32.5347 233.297 32.3617C233.772 32.1887 234.255 32.1022 234.747 32.1022C235.274 32.1022 235.704 32.1325 236.038 32.1931C236.372 32.245 236.657 32.3185 236.895 32.4136L236.631 33.3608C236.209 33.1618 235.608 33.0624 234.826 33.0624C234.466 33.0624 234.11 33.1272 233.759 33.257C233.407 33.3867 233.091 33.5986 232.81 33.8927C232.537 34.1868 232.318 34.5717 232.151 35.0475C231.984 35.5232 231.901 36.1071 231.901 36.7991C231.901 37.4218 231.98 37.9668 232.138 38.4339C232.296 38.9009 232.511 39.2902 232.783 39.6016C233.065 39.913 233.39 40.1465 233.759 40.3022C234.136 40.4579 234.545 40.5357 234.984 40.5357C235.379 40.5357 235.722 40.4968 236.012 40.419C236.31 40.3411 236.561 40.2417 236.763 40.1206L237.026 40.9639Z" fill="white" fill-opacity="0.6"/>
<path d="M139.232 15.7218H137.074V20.2431H135.122V9.65915H137.074V14.1805H139.335L142.829 9.65915H144.884L140.876 14.797L145.192 20.2431H142.932L139.232 15.7218Z" fill="white"/>
<path d="M148.48 19.6266C147.658 19.2156 146.939 18.4963 146.425 17.6742C146.014 16.8522 145.706 15.9273 145.706 14.8998C145.706 13.8722 145.911 12.9474 146.425 12.1253C146.836 11.3033 147.555 10.584 148.48 10.1729C149.302 9.76191 150.33 9.45364 151.46 9.45364C152.385 9.45364 153.31 9.65916 154.029 10.0702C154.748 10.4812 155.365 10.995 155.776 11.7143L154.234 12.7419C153.926 12.2281 153.515 11.8171 153.001 11.6115C152.488 11.406 151.974 11.2005 151.357 11.2005C150.638 11.2005 150.021 11.3033 149.508 11.6115C148.994 11.9198 148.48 12.3308 148.275 12.8446C147.966 13.4612 147.864 14.0777 147.864 14.797C147.864 15.5163 147.966 16.2356 148.275 16.7494C148.583 17.3659 148.994 17.6742 149.508 18.0852C150.021 18.3935 150.741 18.4963 151.357 18.4963C151.974 18.4963 152.488 18.3935 153.001 18.0852C153.515 17.8797 153.926 17.4687 154.234 16.9549L155.776 17.8797C155.365 18.599 154.748 19.1128 154.029 19.6266C153.31 20.0376 152.385 20.2431 151.46 20.2431C150.33 20.3459 149.405 20.1404 148.48 19.6266Z" fill="white"/>
<path d="M168.107 9.65915V20.2431H166.155V11.3033H160.195V20.2431H158.242V9.65915H168.107Z" fill="white"/>
<path d="M181.363 15.5163H172.731C172.834 16.4412 173.245 17.1605 173.964 17.777C174.683 18.3935 175.505 18.5991 176.636 18.5991C177.869 18.5991 178.999 18.188 179.718 17.366L180.746 18.5991C180.335 19.1128 179.718 19.5239 178.896 19.8321C178.177 20.1404 177.355 20.2432 176.533 20.2432C175.403 20.2432 174.478 20.0377 173.553 19.5239C172.628 19.1128 172.012 18.3935 171.498 17.5715C171.087 16.7494 170.779 15.8246 170.779 14.797C170.779 13.7695 170.984 12.8447 171.498 12.0226C171.909 11.2005 172.628 10.4812 173.348 10.0702C174.17 9.65919 175.094 9.35092 176.019 9.35092C176.944 9.35092 177.972 9.55644 178.691 10.0702C179.513 10.4812 180.13 11.2005 180.541 12.0226C180.952 12.8447 181.26 13.7695 181.26 14.8998C181.465 15.1053 181.363 15.3108 181.363 15.5163ZM173.861 11.9198C173.245 12.4336 172.937 13.1529 172.731 14.0777H179.616C179.513 13.1529 179.205 12.4336 178.485 11.9198C177.766 11.4061 177.047 11.0978 176.122 11.0978C175.197 11.0978 174.478 11.4061 173.861 11.9198Z" fill="white"/>
<path d="M192.769 10.173C193.591 10.584 194.207 11.3033 194.721 12.0226C195.132 12.8446 195.44 13.7695 195.44 14.8998C195.44 16.0301 195.235 16.9549 194.721 17.777C194.31 18.599 193.591 19.2156 192.769 19.7294C191.946 20.2431 191.022 20.4487 189.994 20.4487C189.275 20.4487 188.555 20.3459 187.939 20.0376C187.322 19.7294 186.706 19.3183 186.295 18.8046V24.0452H184.342V9.65917H186.192V11.3033C186.603 10.6867 187.22 10.2757 187.836 9.96744C188.555 9.65917 189.172 9.55641 189.994 9.55641C191.022 9.45366 192.049 9.76193 192.769 10.173ZM191.741 18.188C192.255 17.8797 192.769 17.4687 192.974 16.8522C193.282 16.2356 193.385 15.6191 193.385 14.8998C193.385 14.1805 193.282 13.5639 192.974 12.9474C192.666 12.3309 192.255 12.0226 191.741 11.7143C191.227 11.406 190.611 11.3033 189.891 11.3033C189.172 11.3033 188.658 11.406 188.042 11.7143C187.528 12.0226 187.117 12.4336 186.809 12.9474C186.5 13.4612 186.398 14.1805 186.398 14.8998C186.398 15.6191 186.5 16.2356 186.809 16.8522C187.117 17.4687 187.528 17.777 188.042 18.188C188.555 18.4963 189.172 18.599 189.891 18.599C190.508 18.599 191.227 18.4963 191.741 18.188Z" fill="white"/>
<path d="M205.716 11.3033H201.811V20.2431H199.962V11.3033H196.057V9.65915H205.716V11.3033Z" fill="white"/>
<path d="M238.009 0H212.525V26.2031H238.009V0Z" fill="#2470B6"/>
<path d="M230.2 14.0778C230.611 14.6943 230.919 15.3109 230.919 16.1329C230.919 16.955 230.713 17.6743 230.2 18.2908C229.789 18.9074 229.069 19.4211 228.247 19.7294C227.425 20.0377 226.398 20.2432 225.267 20.2432C224.137 20.2432 223.212 20.1404 222.287 19.7294C221.465 19.4211 220.746 18.9074 220.335 18.2908C219.924 17.6743 219.616 16.955 219.616 16.1329C219.616 15.3109 219.821 14.5916 220.232 14.0778C220.643 13.4612 221.26 13.0502 222.082 12.7419C221.363 12.4337 220.952 12.0226 220.541 11.5088C220.13 11.0978 220.027 10.3785 220.027 9.76197C220.027 9.04267 220.232 8.32337 220.643 7.70683C221.054 7.09029 221.568 6.67926 222.493 6.37099C223.212 6.06272 224.137 5.95996 225.165 5.95996C226.192 5.95996 227.014 6.06272 227.836 6.37099C228.556 6.67926 229.172 7.09029 229.686 7.70683C230.097 8.32337 230.302 8.93992 230.302 9.76197C230.302 10.4813 230.2 10.9951 229.789 11.5088C229.378 12.0226 228.967 12.4337 228.247 12.7419C229.172 13.0502 229.789 13.4612 230.2 14.0778ZM227.836 17.9825C228.556 17.5715 228.761 16.955 228.761 16.1329C228.761 15.4136 228.453 14.7971 227.836 14.386C227.22 13.975 226.295 13.6667 225.165 13.6667C224.034 13.6667 223.212 13.8723 222.493 14.386C221.876 14.7971 221.568 15.4136 221.568 16.1329C221.568 16.955 221.876 17.5715 222.493 17.9825C223.212 18.3936 224.034 18.7018 225.165 18.7018C226.398 18.5991 227.22 18.3936 227.836 17.9825ZM223.007 8.11786C222.493 8.52889 222.185 9.04267 222.185 9.76197C222.185 10.4813 222.493 10.9951 223.007 11.4061C223.52 11.8171 224.24 12.0226 225.267 12.0226C226.192 12.0226 227.014 11.8171 227.631 11.4061C228.247 10.9951 228.453 10.4813 228.453 9.76197C228.453 9.04267 228.145 8.52889 227.631 8.11786C227.014 7.80959 226.192 7.60407 225.37 7.60407C224.445 7.60407 223.52 7.80959 223.007 8.11786Z" fill="white"/>
</svg>
