<svg width="205" height="214" viewBox="0 0 205 214" fill="none" xmlns="http://www.w3.org/2000/svg">
<path d="M106.5 7C108.433 7 110 5.433 110 3.5C110 1.567 108.433 0 106.5 0C104.567 0 103 1.567 103 3.5C103 5.433 104.567 7 106.5 7Z" fill="white" fill-opacity="0.12"/>
<path d="M129.5 7C131.433 7 133 5.433 133 3.5C133 1.567 131.433 0 129.5 0C127.567 0 126 1.567 126 3.5C126 5.433 127.567 7 129.5 7Z" fill="white" fill-opacity="0.12"/>
<path d="M152.5 7C154.433 7 156 5.433 156 3.5C156 1.567 154.433 0 152.5 0C150.567 0 149 1.567 149 3.5C149 5.433 150.567 7 152.5 7Z" fill="white" fill-opacity="0.12"/>
<path d="M72.5 22C74.433 22 76 20.433 76 18.5C76 16.567 74.433 15 72.5 15C70.567 15 69 16.567 69 18.5C69 20.433 70.567 22 72.5 22Z" fill="white" fill-opacity="0.12"/>
<path d="M95.5 22C97.433 22 99 20.433 99 18.5C99 16.567 97.433 15 95.5 15C93.567 15 92 16.567 92 18.5C92 20.433 93.567 22 95.5 22Z" fill="white" fill-opacity="0.12"/>
<path d="M118.5 22C120.433 22 122 20.433 122 18.5C122 16.567 120.433 15 118.5 15C116.567 15 115 16.567 115 18.5C115 20.433 116.567 22 118.5 22Z" fill="white" fill-opacity="0.12"/>
<path d="M141.5 22C143.433 22 145 20.433 145 18.5C145 16.567 143.433 15 141.5 15C139.567 15 138 16.567 138 18.5C138 20.433 139.567 22 141.5 22Z" fill="white" fill-opacity="0.12"/>
<path d="M164.5 22C166.433 22 168 20.433 168 18.5C168 16.567 166.433 15 164.5 15C162.567 15 161 16.567 161 18.5C161 20.433 162.567 22 164.5 22Z" fill="white" fill-opacity="0.12"/>
<path d="M187.5 22C189.433 22 191 20.433 191 18.5C191 16.567 189.433 15 187.5 15C185.567 15 184 16.567 184 18.5C184 20.433 185.567 22 187.5 22Z" fill="white" fill-opacity="0.12"/>
<path d="M60.5 36C62.433 36 64 34.433 64 32.5C64 30.567 62.433 29 60.5 29C58.567 29 57 30.567 57 32.5C57 34.433 58.567 36 60.5 36Z" fill="white" fill-opacity="0.12"/>
<path d="M83.5 36C85.433 36 87 34.433 87 32.5C87 30.567 85.433 29 83.5 29C81.567 29 80 30.567 80 32.5C80 34.433 81.567 36 83.5 36Z" fill="white" fill-opacity="0.12"/>
<path d="M106.5 36C108.433 36 110 34.433 110 32.5C110 30.567 108.433 29 106.5 29C104.567 29 103 30.567 103 32.5C103 34.433 104.567 36 106.5 36Z" fill="white" fill-opacity="0.12"/>
<path d="M129.5 36C131.433 36 133 34.433 133 32.5C133 30.567 131.433 29 129.5 29C127.567 29 126 30.567 126 32.5C126 34.433 127.567 36 129.5 36Z" fill="white" fill-opacity="0.12"/>
<path d="M152.5 36C154.433 36 156 34.433 156 32.5C156 30.567 154.433 29 152.5 29C150.567 29 149 30.567 149 32.5C149 34.433 150.567 36 152.5 36Z" fill="white" fill-opacity="0.12"/>
<path d="M175.5 36C177.433 36 179 34.433 179 32.5C179 30.567 177.433 29 175.5 29C173.567 29 172 30.567 172 32.5C172 34.433 173.567 36 175.5 36Z" fill="white" fill-opacity="0.12"/>
<path d="M198.5 36C200.433 36 202 34.433 202 32.5C202 30.567 200.433 29 198.5 29C196.567 29 195 30.567 195 32.5C195 34.433 196.567 36 198.5 36Z" fill="white" fill-opacity="0.12"/>
<path d="M49.5 51C51.433 51 53 49.433 53 47.5C53 45.567 51.433 44 49.5 44C47.567 44 46 45.567 46 47.5C46 49.433 47.567 51 49.5 51Z" fill="white" fill-opacity="0.12"/>
<path d="M72.5 51C74.433 51 76 49.433 76 47.5C76 45.567 74.433 44 72.5 44C70.567 44 69 45.567 69 47.5C69 49.433 70.567 51 72.5 51Z" fill="white" fill-opacity="0.12"/>
<path d="M95.5 51C97.433 51 99 49.433 99 47.5C99 45.567 97.433 44 95.5 44C93.567 44 92 45.567 92 47.5C92 49.433 93.567 51 95.5 51Z" fill="white" fill-opacity="0.12"/>
<path d="M118.5 51C120.433 51 122 49.433 122 47.5C122 45.567 120.433 44 118.5 44C116.567 44 115 45.567 115 47.5C115 49.433 116.567 51 118.5 51Z" fill="white" fill-opacity="0.12"/>
<path d="M141.5 51C143.433 51 145 49.433 145 47.5C145 45.567 143.433 44 141.5 44C139.567 44 138 45.567 138 47.5C138 49.433 139.567 51 141.5 51Z" fill="white" fill-opacity="0.12"/>
<path d="M164.5 51C166.433 51 168 49.433 168 47.5C168 45.567 166.433 44 164.5 44C162.567 44 161 45.567 161 47.5C161 49.433 162.567 51 164.5 51Z" fill="white" fill-opacity="0.12"/>
<path d="M187.5 51C189.433 51 191 49.433 191 47.5C191 45.567 189.433 44 187.5 44C185.567 44 184 45.567 184 47.5C184 49.433 185.567 51 187.5 51Z" fill="white" fill-opacity="0.12"/>
<path d="M37.5 65C39.433 65 41 63.433 41 61.5C41 59.567 39.433 58 37.5 58C35.567 58 34 59.567 34 61.5C34 63.433 35.567 65 37.5 65Z" fill="white" fill-opacity="0.12"/>
<path d="M60.5 65C62.433 65 64 63.433 64 61.5C64 59.567 62.433 58 60.5 58C58.567 58 57 59.567 57 61.5C57 63.433 58.567 65 60.5 65Z" fill="white" fill-opacity="0.12"/>
<path d="M83.5 65C85.433 65 87 63.433 87 61.5C87 59.567 85.433 58 83.5 58C81.567 58 80 59.567 80 61.5C80 63.433 81.567 65 83.5 65Z" fill="white" fill-opacity="0.12"/>
<path d="M106.5 65C108.433 65 110 63.433 110 61.5C110 59.567 108.433 58 106.5 58C104.567 58 103 59.567 103 61.5C103 63.433 104.567 65 106.5 65Z" fill="white" fill-opacity="0.12"/>
<path d="M129.5 65C131.433 65 133 63.433 133 61.5C133 59.567 131.433 58 129.5 58C127.567 58 126 59.567 126 61.5C126 63.433 127.567 65 129.5 65Z" fill="white" fill-opacity="0.12"/>
<path d="M152.5 65C154.433 65 156 63.433 156 61.5C156 59.567 154.433 58 152.5 58C150.567 58 149 59.567 149 61.5C149 63.433 150.567 65 152.5 65Z" fill="white" fill-opacity="0.12"/>
<path d="M175.5 65C177.433 65 179 63.433 179 61.5C179 59.567 177.433 58 175.5 58C173.567 58 172 59.567 172 61.5C172 63.433 173.567 65 175.5 65Z" fill="white" fill-opacity="0.12"/>
<path d="M198.5 65C200.433 65 202 63.433 202 61.5C202 59.567 200.433 58 198.5 58C196.567 58 195 59.567 195 61.5C195 63.433 196.567 65 198.5 65Z" fill="white" fill-opacity="0.12"/>
<path d="M26.5 80C28.433 80 30 78.433 30 76.5C30 74.567 28.433 73 26.5 73C24.567 73 23 74.567 23 76.5C23 78.433 24.567 80 26.5 80Z" fill="white" fill-opacity="0.12"/>
<path d="M49.5 80C51.433 80 53 78.433 53 76.5C53 74.567 51.433 73 49.5 73C47.567 73 46 74.567 46 76.5C46 78.433 47.567 80 49.5 80Z" fill="white" fill-opacity="0.12"/>
<path d="M72.5 80C74.433 80 76 78.433 76 76.5C76 74.567 74.433 73 72.5 73C70.567 73 69 74.567 69 76.5C69 78.433 70.567 80 72.5 80Z" fill="white" fill-opacity="0.12"/>
<path d="M95.5 80C97.433 80 99 78.433 99 76.5C99 74.567 97.433 73 95.5 73C93.567 73 92 74.567 92 76.5C92 78.433 93.567 80 95.5 80Z" fill="white" fill-opacity="0.12"/>
<path d="M118.5 80C120.433 80 122 78.433 122 76.5C122 74.567 120.433 73 118.5 73C116.567 73 115 74.567 115 76.5C115 78.433 116.567 80 118.5 80Z" fill="white" fill-opacity="0.12"/>
<path d="M141.5 80C143.433 80 145 78.433 145 76.5C145 74.567 143.433 73 141.5 73C139.567 73 138 74.567 138 76.5C138 78.433 139.567 80 141.5 80Z" fill="white" fill-opacity="0.12"/>
<path d="M164.5 80C166.433 80 168 78.433 168 76.5C168 74.567 166.433 73 164.5 73C162.567 73 161 74.567 161 76.5C161 78.433 162.567 80 164.5 80Z" fill="white" fill-opacity="0.12"/>
<path d="M187.5 80C189.433 80 191 78.433 191 76.5C191 74.567 189.433 73 187.5 73C185.567 73 184 74.567 184 76.5C184 78.433 185.567 80 187.5 80Z" fill="white" fill-opacity="0.12"/>
<path d="M14.5 94C16.433 94 18 92.433 18 90.5C18 88.567 16.433 87 14.5 87C12.567 87 11 88.567 11 90.5C11 92.433 12.567 94 14.5 94Z" fill="white" fill-opacity="0.12"/>
<path d="M37.5 94C39.433 94 41 92.433 41 90.5C41 88.567 39.433 87 37.5 87C35.567 87 34 88.567 34 90.5C34 92.433 35.567 94 37.5 94Z" fill="white" fill-opacity="0.12"/>
<path d="M60.5 94C62.433 94 64 92.433 64 90.5C64 88.567 62.433 87 60.5 87C58.567 87 57 88.567 57 90.5C57 92.433 58.567 94 60.5 94Z" fill="white" fill-opacity="0.12"/>
<path d="M83.5 94C85.433 94 87 92.433 87 90.5C87 88.567 85.433 87 83.5 87C81.567 87 80 88.567 80 90.5C80 92.433 81.567 94 83.5 94Z" fill="white" fill-opacity="0.12"/>
<path d="M106.5 94C108.433 94 110 92.433 110 90.5C110 88.567 108.433 87 106.5 87C104.567 87 103 88.567 103 90.5C103 92.433 104.567 94 106.5 94Z" fill="white" fill-opacity="0.12"/>
<path d="M129.5 94C131.433 94 133 92.433 133 90.5C133 88.567 131.433 87 129.5 87C127.567 87 126 88.567 126 90.5C126 92.433 127.567 94 129.5 94Z" fill="white" fill-opacity="0.12"/>
<path d="M152.5 94C154.433 94 156 92.433 156 90.5C156 88.567 154.433 87 152.5 87C150.567 87 149 88.567 149 90.5C149 92.433 150.567 94 152.5 94Z" fill="white" fill-opacity="0.12"/>
<path d="M175.5 94C177.433 94 179 92.433 179 90.5C179 88.567 177.433 87 175.5 87C173.567 87 172 88.567 172 90.5C172 92.433 173.567 94 175.5 94Z" fill="white" fill-opacity="0.12"/>
<path d="M198.5 94C200.433 94 202 92.433 202 90.5C202 88.567 200.433 87 198.5 87C196.567 87 195 88.567 195 90.5C195 92.433 196.567 94 198.5 94Z" fill="white" fill-opacity="0.12"/>
<path d="M3.5 109C5.433 109 7 107.433 7 105.5C7 103.567 5.433 102 3.5 102C1.567 102 0 103.567 0 105.5C0 107.433 1.567 109 3.5 109Z" fill="white" fill-opacity="0.12"/>
<path d="M26.5 109C28.433 109 30 107.433 30 105.5C30 103.567 28.433 102 26.5 102C24.567 102 23 103.567 23 105.5C23 107.433 24.567 109 26.5 109Z" fill="white" fill-opacity="0.12"/>
<path d="M49.5 109C51.433 109 53 107.433 53 105.5C53 103.567 51.433 102 49.5 102C47.567 102 46 103.567 46 105.5C46 107.433 47.567 109 49.5 109Z" fill="white" fill-opacity="0.12"/>
<path d="M72.5 109C74.433 109 76 107.433 76 105.5C76 103.567 74.433 102 72.5 102C70.567 102 69 103.567 69 105.5C69 107.433 70.567 109 72.5 109Z" fill="white" fill-opacity="0.12"/>
<path d="M95.5 109C97.433 109 99 107.433 99 105.5C99 103.567 97.433 102 95.5 102C93.567 102 92 103.567 92 105.5C92 107.433 93.567 109 95.5 109Z" fill="white" fill-opacity="0.12"/>
<path d="M118.5 109C120.433 109 122 107.433 122 105.5C122 103.567 120.433 102 118.5 102C116.567 102 115 103.567 115 105.5C115 107.433 116.567 109 118.5 109Z" fill="white" fill-opacity="0.12"/>
<path d="M141.5 109C143.433 109 145 107.433 145 105.5C145 103.567 143.433 102 141.5 102C139.567 102 138 103.567 138 105.5C138 107.433 139.567 109 141.5 109Z" fill="white" fill-opacity="0.12"/>
<path d="M164.5 109C166.433 109 168 107.433 168 105.5C168 103.567 166.433 102 164.5 102C162.567 102 161 103.567 161 105.5C161 107.433 162.567 109 164.5 109Z" fill="white" fill-opacity="0.12"/>
<path d="M187.5 109C189.433 109 191 107.433 191 105.5C191 103.567 189.433 102 187.5 102C185.567 102 184 103.567 184 105.5C184 107.433 185.567 109 187.5 109Z" fill="white" fill-opacity="0.12"/>
<path d="M14.5 123C16.433 123 18 121.433 18 119.5C18 117.567 16.433 116 14.5 116C12.567 116 11 117.567 11 119.5C11 121.433 12.567 123 14.5 123Z" fill="white" fill-opacity="0.12"/>
<path d="M37.5 123C39.433 123 41 121.433 41 119.5C41 117.567 39.433 116 37.5 116C35.567 116 34 117.567 34 119.5C34 121.433 35.567 123 37.5 123Z" fill="white" fill-opacity="0.12"/>
<path d="M60.5 123C62.433 123 64 121.433 64 119.5C64 117.567 62.433 116 60.5 116C58.567 116 57 117.567 57 119.5C57 121.433 58.567 123 60.5 123Z" fill="white" fill-opacity="0.12"/>
<path d="M83.5 123C85.433 123 87 121.433 87 119.5C87 117.567 85.433 116 83.5 116C81.567 116 80 117.567 80 119.5C80 121.433 81.567 123 83.5 123Z" fill="white" fill-opacity="0.12"/>
<path d="M106.5 123C108.433 123 110 121.433 110 119.5C110 117.567 108.433 116 106.5 116C104.567 116 103 117.567 103 119.5C103 121.433 104.567 123 106.5 123Z" fill="white" fill-opacity="0.12"/>
<path d="M129.5 123C131.433 123 133 121.433 133 119.5C133 117.567 131.433 116 129.5 116C127.567 116 126 117.567 126 119.5C126 121.433 127.567 123 129.5 123Z" fill="white" fill-opacity="0.12"/>
<path d="M152.5 123C154.433 123 156 121.433 156 119.5C156 117.567 154.433 116 152.5 116C150.567 116 149 117.567 149 119.5C149 121.433 150.567 123 152.5 123Z" fill="white" fill-opacity="0.12"/>
<path d="M175.5 123C177.433 123 179 121.433 179 119.5C179 117.567 177.433 116 175.5 116C173.567 116 172 117.567 172 119.5C172 121.433 173.567 123 175.5 123Z" fill="white" fill-opacity="0.12"/>
<path d="M198.5 123C200.433 123 202 121.433 202 119.5C202 117.567 200.433 116 198.5 116C196.567 116 195 117.567 195 119.5C195 121.433 196.567 123 198.5 123Z" fill="white" fill-opacity="0.12"/>
<path d="M3.5 138C5.433 138 7 136.433 7 134.5C7 132.567 5.433 131 3.5 131C1.567 131 0 132.567 0 134.5C0 136.433 1.567 138 3.5 138Z" fill="white" fill-opacity="0.12"/>
<path d="M26.5 138C28.433 138 30 136.433 30 134.5C30 132.567 28.433 131 26.5 131C24.567 131 23 132.567 23 134.5C23 136.433 24.567 138 26.5 138Z" fill="white" fill-opacity="0.12"/>
<path d="M49.5 138C51.433 138 53 136.433 53 134.5C53 132.567 51.433 131 49.5 131C47.567 131 46 132.567 46 134.5C46 136.433 47.567 138 49.5 138Z" fill="white" fill-opacity="0.12"/>
<path d="M72.5 138C74.433 138 76 136.433 76 134.5C76 132.567 74.433 131 72.5 131C70.567 131 69 132.567 69 134.5C69 136.433 70.567 138 72.5 138Z" fill="white" fill-opacity="0.12"/>
<path d="M95.5 138C97.433 138 99 136.433 99 134.5C99 132.567 97.433 131 95.5 131C93.567 131 92 132.567 92 134.5C92 136.433 93.567 138 95.5 138Z" fill="white" fill-opacity="0.12"/>
<path d="M118.5 138C120.433 138 122 136.433 122 134.5C122 132.567 120.433 131 118.5 131C116.567 131 115 132.567 115 134.5C115 136.433 116.567 138 118.5 138Z" fill="white" fill-opacity="0.12"/>
<path d="M141.5 138C143.433 138 145 136.433 145 134.5C145 132.567 143.433 131 141.5 131C139.567 131 138 132.567 138 134.5C138 136.433 139.567 138 141.5 138Z" fill="white" fill-opacity="0.12"/>
<path d="M164.5 138C166.433 138 168 136.433 168 134.5C168 132.567 166.433 131 164.5 131C162.567 131 161 132.567 161 134.5C161 136.433 162.567 138 164.5 138Z" fill="white" fill-opacity="0.12"/>
<path d="M187.5 138C189.433 138 191 136.433 191 134.5C191 132.567 189.433 131 187.5 131C185.567 131 184 132.567 184 134.5C184 136.433 185.567 138 187.5 138Z" fill="white" fill-opacity="0.12"/>
<path d="M14.5 152C16.433 152 18 150.433 18 148.5C18 146.567 16.433 145 14.5 145C12.567 145 11 146.567 11 148.5C11 150.433 12.567 152 14.5 152Z" fill="white" fill-opacity="0.12"/>
<path d="M37.5 152C39.433 152 41 150.433 41 148.5C41 146.567 39.433 145 37.5 145C35.567 145 34 146.567 34 148.5C34 150.433 35.567 152 37.5 152Z" fill="white" fill-opacity="0.12"/>
<path d="M60.5 152C62.433 152 64 150.433 64 148.5C64 146.567 62.433 145 60.5 145C58.567 145 57 146.567 57 148.5C57 150.433 58.567 152 60.5 152Z" fill="white" fill-opacity="0.12"/>
<path d="M83.5 152C85.433 152 87 150.433 87 148.5C87 146.567 85.433 145 83.5 145C81.567 145 80 146.567 80 148.5C80 150.433 81.567 152 83.5 152Z" fill="white" fill-opacity="0.12"/>
<path d="M106.5 152C108.433 152 110 150.433 110 148.5C110 146.567 108.433 145 106.5 145C104.567 145 103 146.567 103 148.5C103 150.433 104.567 152 106.5 152Z" fill="white" fill-opacity="0.12"/>
<path d="M129.5 152C131.433 152 133 150.433 133 148.5C133 146.567 131.433 145 129.5 145C127.567 145 126 146.567 126 148.5C126 150.433 127.567 152 129.5 152Z" fill="white" fill-opacity="0.12"/>
<path d="M152.5 152C154.433 152 156 150.433 156 148.5C156 146.567 154.433 145 152.5 145C150.567 145 149 146.567 149 148.5C149 150.433 150.567 152 152.5 152Z" fill="white" fill-opacity="0.12"/>
<path d="M175.5 152C177.433 152 179 150.433 179 148.5C179 146.567 177.433 145 175.5 145C173.567 145 172 146.567 172 148.5C172 150.433 173.567 152 175.5 152Z" fill="white" fill-opacity="0.12"/>
<path d="M198.5 152C200.433 152 202 150.433 202 148.5C202 146.567 200.433 145 198.5 145C196.567 145 195 146.567 195 148.5C195 150.433 196.567 152 198.5 152Z" fill="white" fill-opacity="0.12"/>
<path d="M3.5 167C5.433 167 7 165.433 7 163.5C7 161.567 5.433 160 3.5 160C1.567 160 0 161.567 0 163.5C0 165.433 1.567 167 3.5 167Z" fill="white" fill-opacity="0.12"/>
<path d="M26.5 167C28.433 167 30 165.433 30 163.5C30 161.567 28.433 160 26.5 160C24.567 160 23 161.567 23 163.5C23 165.433 24.567 167 26.5 167Z" fill="white" fill-opacity="0.12"/>
<path d="M49.5 167C51.433 167 53 165.433 53 163.5C53 161.567 51.433 160 49.5 160C47.567 160 46 161.567 46 163.5C46 165.433 47.567 167 49.5 167Z" fill="white" fill-opacity="0.12"/>
<path d="M72.5 167C74.433 167 76 165.433 76 163.5C76 161.567 74.433 160 72.5 160C70.567 160 69 161.567 69 163.5C69 165.433 70.567 167 72.5 167Z" fill="white" fill-opacity="0.12"/>
<path d="M95.5 167C97.433 167 99 165.433 99 163.5C99 161.567 97.433 160 95.5 160C93.567 160 92 161.567 92 163.5C92 165.433 93.567 167 95.5 167Z" fill="white" fill-opacity="0.12"/>
<path d="M118.5 167C120.433 167 122 165.433 122 163.5C122 161.567 120.433 160 118.5 160C116.567 160 115 161.567 115 163.5C115 165.433 116.567 167 118.5 167Z" fill="white" fill-opacity="0.12"/>
<path d="M141.5 167C143.433 167 145 165.433 145 163.5C145 161.567 143.433 160 141.5 160C139.567 160 138 161.567 138 163.5C138 165.433 139.567 167 141.5 167Z" fill="white" fill-opacity="0.12"/>
<path d="M164.5 167C166.433 167 168 165.433 168 163.5C168 161.567 166.433 160 164.5 160C162.567 160 161 161.567 161 163.5C161 165.433 162.567 167 164.5 167Z" fill="white" fill-opacity="0.12"/>
<path d="M187.5 167C189.433 167 191 165.433 191 163.5C191 161.567 189.433 160 187.5 160C185.567 160 184 161.567 184 163.5C184 165.433 185.567 167 187.5 167Z" fill="white" fill-opacity="0.12"/>
<path d="M14.5 181C16.433 181 18 179.433 18 177.5C18 175.567 16.433 174 14.5 174C12.567 174 11 175.567 11 177.5C11 179.433 12.567 181 14.5 181Z" fill="white" fill-opacity="0.12"/>
<path d="M37.5 181C39.433 181 41 179.433 41 177.5C41 175.567 39.433 174 37.5 174C35.567 174 34 175.567 34 177.5C34 179.433 35.567 181 37.5 181Z" fill="white" fill-opacity="0.12"/>
<path d="M60.5 181C62.433 181 64 179.433 64 177.5C64 175.567 62.433 174 60.5 174C58.567 174 57 175.567 57 177.5C57 179.433 58.567 181 60.5 181Z" fill="white" fill-opacity="0.12"/>
<path d="M83.5 181C85.433 181 87 179.433 87 177.5C87 175.567 85.433 174 83.5 174C81.567 174 80 175.567 80 177.5C80 179.433 81.567 181 83.5 181Z" fill="white" fill-opacity="0.12"/>
<path d="M106.5 181C108.433 181 110 179.433 110 177.5C110 175.567 108.433 174 106.5 174C104.567 174 103 175.567 103 177.5C103 179.433 104.567 181 106.5 181Z" fill="white" fill-opacity="0.12"/>
<path d="M129.5 181C131.433 181 133 179.433 133 177.5C133 175.567 131.433 174 129.5 174C127.567 174 126 175.567 126 177.5C126 179.433 127.567 181 129.5 181Z" fill="white" fill-opacity="0.12"/>
<path d="M152.5 181C154.433 181 156 179.433 156 177.5C156 175.567 154.433 174 152.5 174C150.567 174 149 175.567 149 177.5C149 179.433 150.567 181 152.5 181Z" fill="white" fill-opacity="0.12"/>
<path d="M175.5 181C177.433 181 179 179.433 179 177.5C179 175.567 177.433 174 175.5 174C173.567 174 172 175.567 172 177.5C172 179.433 173.567 181 175.5 181Z" fill="white" fill-opacity="0.12"/>
<path d="M198.5 181C200.433 181 202 179.433 202 177.5C202 175.567 200.433 174 198.5 174C196.567 174 195 175.567 195 177.5C195 179.433 196.567 181 198.5 181Z" fill="white" fill-opacity="0.12"/>
<path d="M3.5 196C5.433 196 7 194.433 7 192.5C7 190.567 5.433 189 3.5 189C1.567 189 0 190.567 0 192.5C0 194.433 1.567 196 3.5 196Z" fill="white" fill-opacity="0.12"/>
<path d="M26.5 196C28.433 196 30 194.433 30 192.5C30 190.567 28.433 189 26.5 189C24.567 189 23 190.567 23 192.5C23 194.433 24.567 196 26.5 196Z" fill="white" fill-opacity="0.12"/>
<path d="M49.5 196C51.433 196 53 194.433 53 192.5C53 190.567 51.433 189 49.5 189C47.567 189 46 190.567 46 192.5C46 194.433 47.567 196 49.5 196Z" fill="white" fill-opacity="0.12"/>
<path d="M72.5 196C74.433 196 76 194.433 76 192.5C76 190.567 74.433 189 72.5 189C70.567 189 69 190.567 69 192.5C69 194.433 70.567 196 72.5 196Z" fill="white" fill-opacity="0.12"/>
<path d="M95.5 196C97.433 196 99 194.433 99 192.5C99 190.567 97.433 189 95.5 189C93.567 189 92 190.567 92 192.5C92 194.433 93.567 196 95.5 196Z" fill="white" fill-opacity="0.12"/>
<path d="M118.5 196C120.433 196 122 194.433 122 192.5C122 190.567 120.433 189 118.5 189C116.567 189 115 190.567 115 192.5C115 194.433 116.567 196 118.5 196Z" fill="white" fill-opacity="0.12"/>
<path d="M141.5 196C143.433 196 145 194.433 145 192.5C145 190.567 143.433 189 141.5 189C139.567 189 138 190.567 138 192.5C138 194.433 139.567 196 141.5 196Z" fill="white" fill-opacity="0.12"/>
<path d="M164.5 196C166.433 196 168 194.433 168 192.5C168 190.567 166.433 189 164.5 189C162.567 189 161 190.567 161 192.5C161 194.433 162.567 196 164.5 196Z" fill="white" fill-opacity="0.12"/>
<path d="M187.5 196C189.433 196 191 194.433 191 192.5C191 190.567 189.433 189 187.5 189C185.567 189 184 190.567 184 192.5C184 194.433 185.567 196 187.5 196Z" fill="white" fill-opacity="0.12"/>
<path d="M14.5 210C16.433 210 18 208.433 18 206.5C18 204.567 16.433 203 14.5 203C12.567 203 11 204.567 11 206.5C11 208.433 12.567 210 14.5 210Z" fill="white" fill-opacity="0.12"/>
<path d="M37.5 210C39.433 210 41 208.433 41 206.5C41 204.567 39.433 203 37.5 203C35.567 203 34 204.567 34 206.5C34 208.433 35.567 210 37.5 210Z" fill="white" fill-opacity="0.12"/>
<path d="M60.5 210C62.433 210 64 208.433 64 206.5C64 204.567 62.433 203 60.5 203C58.567 203 57 204.567 57 206.5C57 208.433 58.567 210 60.5 210Z" fill="white" fill-opacity="0.12"/>
<path d="M83.5 210C85.433 210 87 208.433 87 206.5C87 204.567 85.433 203 83.5 203C81.567 203 80 204.567 80 206.5C80 208.433 81.567 210 83.5 210Z" fill="white" fill-opacity="0.12"/>
<path d="M106.5 210C108.433 210 110 208.433 110 206.5C110 204.567 108.433 203 106.5 203C104.567 203 103 204.567 103 206.5C103 208.433 104.567 210 106.5 210Z" fill="white" fill-opacity="0.12"/>
<path d="M129.5 210C131.433 210 133 208.433 133 206.5C133 204.567 131.433 203 129.5 203C127.567 203 126 204.567 126 206.5C126 208.433 127.567 210 129.5 210Z" fill="white" fill-opacity="0.12"/>
<path d="M152.5 210C154.433 210 156 208.433 156 206.5C156 204.567 154.433 203 152.5 203C150.567 203 149 204.567 149 206.5C149 208.433 150.567 210 152.5 210Z" fill="white" fill-opacity="0.12"/>
<path d="M175.5 210C177.433 210 179 208.433 179 206.5C179 204.567 177.433 203 175.5 203C173.567 203 172 204.567 172 206.5C172 208.433 173.567 210 175.5 210Z" fill="white" fill-opacity="0.12"/>
<path d="M198.5 210C200.433 210 202 208.433 202 206.5C202 204.567 200.433 203 198.5 203C196.567 203 195 204.567 195 206.5C195 208.433 196.567 210 198.5 210Z" fill="white" fill-opacity="0.12"/>
</svg>
