<svg width="25" height="25" viewBox="0 0 25 25" fill="none" xmlns="http://www.w3.org/2000/svg">
<rect width="25" height="25" rx="2" fill="#2997D7"/>
<path d="M17.6885 7.54234L5.28802 12.1311C4.88637 12.2797 4.9107 12.8271 5.32415 12.943L8.47524 13.8266L9.65123 17.37C9.77407 17.7401 10.268 17.8523 10.5539 17.5751L12.1831 15.9955L15.3798 18.2236C15.771 18.4963 16.3281 18.2937 16.4274 17.8426L18.5446 8.23078C18.6482 7.75996 18.1604 7.36769 17.6885 7.54234ZM16.1338 9.67545L10.3738 14.5122C10.3164 14.5604 10.2799 14.6272 10.2713 14.6995L10.0496 16.5715C10.0423 16.6325 9.95238 16.6406 9.93317 16.582L9.02078 13.7902C8.97899 13.6624 9.03347 13.5239 9.15322 13.4534L15.9551 9.44741C16.1115 9.35521 16.2717 9.55969 16.1338 9.67545Z" fill="white"/>
</svg>
