<svg width="25" height="25" viewBox="0 0 25 25" fill="none" xmlns="http://www.w3.org/2000/svg">
<rect width="25" height="25" rx="2" fill="#C30012"/>
<path d="M19.6909 8.72122C19.518 8.0482 19.0114 7.51769 18.3689 7.33645C17.1951 7 12.4999 7 12.4999 7C12.4999 7 7.80471 7 6.63089 7.32363C6.00078 7.50474 5.48179 8.04832 5.30887 8.72122C5 9.95053 5 12.5 5 12.5C5 12.5 5 15.0623 5.30887 16.2788C5.48191 16.9517 5.98842 17.4823 6.63101 17.6635C7.81707 18 12.5 18 12.5 18C12.5 18 17.1951 18 18.3689 17.6764C19.0115 17.4953 19.518 16.9646 19.6911 16.2917C19.9999 15.0623 19.9999 12.5129 19.9999 12.5129C19.9999 12.5129 20.0123 9.95053 19.6909 8.72122Z" fill="white"/>
<path d="M11 15L16 12.5L11 10V15Z" fill="#C30012"/>
</svg>
