<svg width="25" height="25" viewBox="0 0 25 25" fill="none" xmlns="http://www.w3.org/2000/svg">
<rect width="25" height="25" rx="2" fill="#F3A022"/>
<path d="M12.18 13.4673C14.285 13.4673 15.9969 11.7555 15.9969 9.65042C15.9969 7.54539 14.285 5.8335 12.18 5.8335C10.0749 5.8335 8.36304 7.54539 8.36304 9.65042C8.36304 11.7555 10.0749 13.4673 12.18 13.4673ZM12.18 7.74196C13.2325 7.74196 14.0884 8.5979 14.0884 9.65042C14.0884 10.7029 13.2325 11.5589 12.18 11.5589C11.1274 11.5589 10.2715 10.7029 10.2715 9.65042C10.2715 8.5979 11.1274 7.74196 12.18 7.74196Z" fill="white"/>
<path d="M17.4054 12.8855C17.0202 12.5304 16.3975 12.5304 16.0123 12.8855C13.9001 14.8329 10.4619 14.8329 8.34868 12.8855C7.96348 12.5304 7.34085 12.5304 6.95565 12.8855C6.57045 13.2406 6.57045 13.8147 6.95565 14.1708C8.18121 15.3007 9.73482 15.9447 11.3367 16.1127L8.52799 18.7023C8.14278 19.0574 8.14278 19.6315 8.52799 19.9866C8.91319 20.3418 9.53582 20.3418 9.92102 19.9866L12.18 17.9039L14.439 19.9866C14.6311 20.1637 14.8833 20.2528 15.1355 20.2528C15.3877 20.2528 15.6399 20.1637 15.8321 19.9866C16.2173 19.6315 16.2173 19.0574 15.8321 18.7023L13.0233 16.1127C14.6252 15.9447 16.1788 15.3007 17.4044 14.1708C17.7896 13.8156 17.7896 13.2406 17.4054 12.8855Z" fill="white"/>
</svg>
