<svg width="25" height="25" viewBox="0 0 25 25" fill="none" xmlns="http://www.w3.org/2000/svg">
<rect width="25" height="25" rx="2" fill="#448ACB"/>
<path fill-rule="evenodd" clip-rule="evenodd" d="M12.6963 17.2699H13.6365C13.6365 17.2699 13.9205 17.2387 14.0655 17.0824C14.199 16.9389 14.1947 16.6694 14.1947 16.6694C14.1947 16.6694 14.1764 15.4077 14.7619 15.2219C15.3392 15.0389 16.0804 16.4413 16.8661 16.9805C17.4602 17.3886 17.9116 17.2991 17.9116 17.2991L20.0123 17.2699C20.0123 17.2699 21.1112 17.2022 20.5902 16.3381C20.5475 16.2675 20.2867 15.699 19.0283 14.5309C17.7111 13.3083 17.8875 13.506 19.4742 11.3912C20.4405 10.1033 20.8268 9.31701 20.7061 8.98025C20.591 8.65949 19.8803 8.74427 19.8803 8.74427L17.515 8.75901C17.515 8.75901 17.3397 8.73509 17.2097 8.81282C17.0826 8.88906 17.0008 9.06673 17.0008 9.06673C17.0008 9.06673 16.6265 10.0634 16.1272 10.911C15.0739 12.6994 14.6528 12.7938 14.4807 12.6828C14.0803 12.424 14.1802 11.643 14.1802 11.0882C14.1802 9.35503 14.4431 8.63237 13.6683 8.4453C13.4112 8.38316 13.222 8.34216 12.5645 8.33554C11.7205 8.32678 11.0062 8.3381 10.6018 8.53627C10.3327 8.66803 10.1251 8.96167 10.2515 8.97854C10.4078 8.99946 10.7619 9.07399 10.9496 9.32961C11.192 9.65934 11.1835 10.3999 11.1835 10.3999C11.1835 10.3999 11.3227 12.4402 10.8582 12.6937C10.5394 12.8675 10.102 12.5126 9.16306 10.89C8.68193 10.0589 8.31868 9.14019 8.31868 9.14019C8.31868 9.14019 8.24864 8.9685 8.12371 8.87667C7.97209 8.76541 7.76025 8.72996 7.76025 8.72996L5.51262 8.7447C5.51262 8.7447 5.17521 8.7541 5.05135 8.9008C4.94116 9.03128 5.0426 9.30121 5.0426 9.30121C5.0426 9.30121 6.80226 13.418 8.79469 15.4927C10.6216 17.3948 12.6963 17.2699 12.6963 17.2699Z" fill="white"/>
</svg>
